<?xml version="1.0" encoding="UTF-8" standalone="no"?>
<svg
   xmlns:dc="http://purl.org/dc/elements/1.1/"
   xmlns:cc="http://creativecommons.org/ns#"
   xmlns:rdf="http://www.w3.org/1999/02/22-rdf-syntax-ns#"
   xmlns:svg="http://www.w3.org/2000/svg"
   xmlns="http://www.w3.org/2000/svg"
   xmlns:sodipodi="http://sodipodi.sourceforge.net/DTD/sodipodi-0.dtd"
   xmlns:inkscape="http://www.inkscape.org/namespaces/inkscape"
   width="128.66515mm"
   height="127.32877mm"
   viewBox="0 0 128.66515 127.32877"
   version="1.1"
   id="svg1975"
   inkscape:version="1.0rc1 (09960d6f05, 2020-04-09)"
   sodipodi:docname="logo.svg">
  <defs
     id="defs1969">
    <inkscape:path-effect
       fuse_tolerance="0"
       hide_knot="false"
       vertical_pattern="true"
       prop_units="false"
       tang_offset="0"
       normal_offset="0"
       spacing="-2.7"
       scale_y_rel="false"
       prop_scale="1"
       copytype="repeated_stretched"
       pattern="m 110.16666,133.25188 c -0.0538,-0.47224 -0.0743,-1.43053 -0.0455,-2.12953 0.0495,-1.2053 0.0768,-1.30417 0.52982,-1.91522 0.56547,-0.76279 1.59013,-1.43796 3.4805,-2.29332 l 1.29463,-0.58582 1.11206,0.49327 c 2.31022,1.02475 3.59546,1.9701 4.05629,2.98362 0.24998,0.5498 0.30342,1.95318 0.13231,3.4749 l -0.0968,0.86119 -1.18926,-0.73135 c -1.09234,-0.67174 -3.63176,-1.81273 -4.03503,-1.813 -0.36986,-2.5e-4 -3.17423,1.27374 -4.12931,1.87589 l -1.01189,0.63797 z"
       lpeversion="1"
       is_visible="true"
       id="path-effect1096"
       effect="skeletal" />
    <inkscape:path-effect
       fuse_tolerance="0"
       hide_knot="false"
       vertical_pattern="true"
       prop_units="false"
       tang_offset="0"
       normal_offset="0"
       spacing="-2.7"
       scale_y_rel="false"
       prop_scale="1"
       copytype="repeated_stretched"
       pattern="m 160.69277,138.12908 c 0.0292,-0.47417 0.0403,-1.43638 0.0247,-2.13824 -0.0269,-1.21023 -0.0417,-1.3095 -0.28747,-1.92305 -0.3068,-0.76591 -0.86275,-1.44384 -1.88841,-2.3027 l -0.70242,-0.58822 -0.60337,0.49529 c -1.25345,1.02894 -1.95078,1.97816 -2.20081,2.99583 -0.13563,0.55204 -0.16463,1.96116 -0.0718,3.48911 l 0.0525,0.86471 0.64526,-0.73434 c 0.59267,-0.67449 1.97047,-1.82015 2.18928,-1.82042 0.20067,-2.5e-4 1.72223,1.27895 2.24043,1.88357 l 0.54902,0.64058 z"
       lpeversion="1"
       is_visible="true"
       id="path-effect5240"
       effect="skeletal" />
    <inkscape:path-effect
       effect="skeletal"
       id="path-effect5238"
       is_visible="true"
       lpeversion="1"
       pattern="m 131.09226,168.27589 c 0.0313,-0.47409 0.0433,-1.43609 0.0265,-2.13782 -0.0289,-1.21 -0.0448,-1.30926 -0.3088,-1.92268 -0.32957,-0.76577 -0.92678,-1.44356 -2.02854,-2.30226 l -0.75456,-0.58811 -0.64814,0.4952 c -1.34647,1.02874 -2.09555,1.97778 -2.36413,2.99525 -0.1457,0.55193 -0.17685,1.96077 -0.0771,3.48843 l 0.0564,0.86453 0.69314,-0.73419 c 0.63665,-0.67435 2.1167,-1.8198 2.35174,-1.82007 0.21557,-2.5e-4 1.85005,1.2787 2.4067,1.88321 l 0.58976,0.64045 z"
       copytype="repeated_stretched"
       prop_scale="1"
       scale_y_rel="false"
       spacing="-2.7"
       normal_offset="0"
       tang_offset="0"
       prop_units="false"
       vertical_pattern="true"
       hide_knot="false"
       fuse_tolerance="0" />
    <inkscape:path-effect
       effect="skeletal"
       id="path-effect5195"
       is_visible="true"
       lpeversion="1"
       pattern="m 134.36618,206.82471 c -0.0292,0.47417 -0.0403,1.43638 -0.0247,2.13824 0.0269,1.21023 0.0417,1.3095 0.28747,1.92305 0.3068,0.76591 0.86275,1.44384 1.8884,2.3027 l 0.70243,0.58822 0.60336,-0.49529 c 1.25346,-1.02894 1.95079,-1.97816 2.20082,-2.99583 0.13563,-0.55204 0.16463,-1.96116 0.0718,-3.48911 l -0.0525,-0.86471 -0.64526,0.73434 c -0.59267,0.67449 -1.97048,1.82015 -2.18928,1.82042 -0.20067,2.5e-4 -1.72223,-1.27895 -2.24043,-1.88357 l -0.54902,-0.64058 z"
       copytype="repeated_stretched"
       prop_scale="1"
       scale_y_rel="false"
       spacing="-2.7"
       normal_offset="0"
       tang_offset="0"
       prop_units="false"
       vertical_pattern="true"
       hide_knot="false"
       fuse_tolerance="0" />
    <inkscape:path-effect
       fuse_tolerance="0"
       hide_knot="false"
       vertical_pattern="true"
       prop_units="false"
       tang_offset="0"
       normal_offset="0"
       spacing="-2.7"
       scale_y_rel="false"
       prop_scale="1"
       copytype="repeated_stretched"
       pattern="m 163.96669,176.6779 c -0.0313,0.47409 -0.0433,1.43609 -0.0265,2.13782 0.0289,1.21 0.0448,1.30926 0.3088,1.92268 0.32957,0.76577 0.92677,1.44356 2.02854,2.30226 l 0.75456,0.58811 0.64814,-0.4952 c 1.34647,-1.02874 2.09555,-1.97778 2.36413,-2.99525 0.1457,-0.55193 0.17685,-1.96077 0.0771,-3.48843 l -0.0564,-0.86453 -0.69314,0.73419 c -0.63665,0.67435 -2.1167,1.8198 -2.35174,1.82007 -0.21557,2.5e-4 -1.85005,-1.2787 -2.4067,-1.88321 l -0.58976,-0.64045 z"
       lpeversion="1"
       is_visible="true"
       id="path-effect5193"
       effect="skeletal" />
    <inkscape:path-effect
       fuse_tolerance="0"
       hide_knot="false"
       vertical_pattern="true"
       prop_units="false"
       tang_offset="0"
       normal_offset="0"
       spacing="-2.7"
       scale_y_rel="false"
       prop_scale="1"
       copytype="repeated_stretched"
       pattern="m 103.01007,123.6911 c -0.0292,-0.47417 -0.0403,-1.43638 -0.0247,-2.13824 0.0269,-1.21023 0.0417,-1.3095 0.28747,-1.92305 0.3068,-0.76591 0.86275,-1.44384 1.8884,-2.3027 l 0.70243,-0.58822 0.60336,0.49529 c 1.25346,1.02894 1.95079,1.97816 2.20082,2.99583 0.13563,0.55204 0.16463,1.96116 0.0718,3.48911 l -0.0525,0.86471 -0.64526,-0.73434 c -0.59267,-0.67449 -1.97048,-1.82015 -2.18928,-1.82042 -0.20067,-2.5e-4 -1.72223,1.27895 -2.24043,1.88357 l -0.54902,0.64058 z"
       lpeversion="1"
       is_visible="true"
       id="path-effect5169"
       effect="skeletal" />
    <inkscape:path-effect
       effect="skeletal"
       id="path-effect5167"
       is_visible="true"
       lpeversion="1"
       pattern="m 132.61058,153.83791 c -0.0313,-0.47409 -0.0433,-1.43609 -0.0265,-2.13782 0.0289,-1.21 0.0448,-1.30926 0.3088,-1.92268 0.32957,-0.76577 0.92677,-1.44356 2.02854,-2.30226 l 0.75456,-0.58811 0.64814,0.4952 c 1.34647,1.02874 2.09555,1.97778 2.36413,2.99525 0.1457,0.55193 0.17685,1.96077 0.0771,3.48843 l -0.0564,0.86453 -0.69314,-0.73419 c -0.63665,-0.67435 -2.1167,-1.8198 -2.35174,-1.82007 -0.21557,-2.5e-4 -1.85005,1.2787 -2.4067,1.88321 l -0.58976,0.64045 z"
       copytype="repeated_stretched"
       prop_scale="1"
       scale_y_rel="false"
       spacing="-2.7"
       normal_offset="0"
       tang_offset="0"
       prop_units="false"
       vertical_pattern="true"
       hide_knot="false"
       fuse_tolerance="0" />
    <inkscape:path-effect
       fuse_tolerance="0"
       hide_knot="false"
       vertical_pattern="true"
       prop_units="false"
       tang_offset="0"
       normal_offset="0"
       spacing="-2.7"
       scale_y_rel="false"
       prop_scale="1"
       copytype="repeated_stretched"
       pattern="m 151.3711,130.9983 c 0.47506,-0.002 1.43633,0.0418 2.13616,0.0975 1.20671,0.096 1.30498,0.11644 1.90349,0.39684 0.74713,0.35006 1.39219,0.94382 2.19106,2.01687 l 0.54714,0.73488 -0.52895,0.57409 c -1.09886,1.19262 -2.08637,1.83459 -3.11666,2.02608 -0.55889,0.10388 -1.96736,0.0523 -3.48751,-0.12763 l -0.8603,-0.10181 0.77,-0.60225 c 0.70724,-0.55317 1.92974,-1.86329 1.94251,-2.08171 0.0117,-0.20033 -1.17848,-1.79249 -1.75252,-2.34437 l -0.60817,-0.58473 z"
       lpeversion="1"
       is_visible="true"
       id="path-effect5143"
       effect="skeletal" />
    <inkscape:path-effect
       effect="skeletal"
       id="path-effect5141"
       is_visible="true"
       lpeversion="1"
       pattern="m 119.58262,158.82836 c 0.4751,-0.004 1.43621,0.0388 2.13584,0.0957 1.20637,0.098 1.30456,0.11952 1.9019,0.41813 0.74569,0.37277 1.38826,1.00772 2.18262,2.15675 l 0.54405,0.78691 -0.53142,0.61879 c -1.10397,1.28551 -2.09426,1.97915 -3.12541,2.18918 -0.55935,0.11394 -1.96767,0.0645 -3.48713,-0.1223 l -0.8599,-0.10569 0.77258,-0.65007 c 0.70962,-0.59709 1.93775,-2.0093 1.95144,-2.24394 0.0126,-0.21519 -1.17093,-1.92006 -1.74265,-2.51033 l -0.60571,-0.6254 z"
       copytype="repeated_stretched"
       prop_scale="1"
       scale_y_rel="false"
       spacing="-2.7"
       normal_offset="0"
       tang_offset="0"
       prop_units="false"
       vertical_pattern="true"
       hide_knot="false"
       fuse_tolerance="0" />
    <inkscape:path-effect
       fuse_tolerance="0"
       hide_knot="false"
       vertical_pattern="true"
       prop_units="false"
       tang_offset="0"
       normal_offset="0"
       spacing="-2.7"
       scale_y_rel="false"
       prop_scale="1"
       copytype="repeated_stretched"
       pattern="m 105.17698,116.08084 c -0.0447,-0.47364 -0.0618,-1.43477 -0.0379,-2.13585 0.0412,-1.20888 0.0639,-1.30805 0.44066,-1.92091 0.47031,-0.76506 1.32253,-1.44223 2.89478,-2.30014 l 1.07676,-0.58756 0.92491,0.49474 c 1.92145,1.02779 2.9904,1.97596 3.37368,2.99249 0.20791,0.55142 0.25235,1.95897 0.11005,3.48522 l -0.0805,0.86374 -0.98913,-0.73351 c -0.90851,-0.67374 -3.02059,-1.81813 -3.35599,-1.8184 -0.30761,-2.5e-4 -2.64005,1.27753 -3.4344,1.88147 l -0.84161,0.63987 z"
       lpeversion="1"
       is_visible="true"
       id="path-effect5099"
       effect="skeletal" />
    <inkscape:path-effect
       effect="skeletal"
       id="path-effect5097"
       is_visible="true"
       lpeversion="1"
       pattern="m 147.59347,144.9145 c -0.0453,-0.47367 -0.0625,-1.43484 -0.0383,-2.13596 0.0417,-1.20895 0.0647,-1.30812 0.44592,-1.92101 0.47591,-0.7651 1.3383,-1.4423 2.92929,-2.30026 l 1.0896,-0.58759 0.93594,0.49477 c 1.94435,1.02784 3.02604,1.97606 3.41389,2.99264 0.2104,0.55145 0.25537,1.95907 0.11137,3.4854 l -0.0815,0.86378 -1.00092,-0.73355 c -0.91935,-0.67377 -3.0566,-1.81822 -3.39601,-1.81849 -0.31128,-2.5e-4 -2.67152,1.27759 -3.47534,1.88157 l -0.85164,0.63989 z"
       copytype="repeated_stretched"
       prop_scale="1"
       scale_y_rel="false"
       spacing="-2.7"
       normal_offset="0"
       tang_offset="0"
       prop_units="false"
       vertical_pattern="true"
       hide_knot="false"
       fuse_tolerance="0" />
    <inkscape:path-effect
       fuse_tolerance="0"
       hide_knot="false"
       vertical_pattern="true"
       prop_units="false"
       tang_offset="0"
       normal_offset="0"
       spacing="-2.7"
       scale_y_rel="false"
       prop_scale="1"
       copytype="repeated_stretched"
       pattern="m 144.70571,207.55565 c -0.0346,0.47399 -0.0478,1.43583 -0.0293,2.13743 0.0318,1.20978 0.0494,1.30902 0.34068,1.92233 0.3636,0.76563 1.02246,1.4433 2.23797,2.30185 l 0.83245,0.58799 0.71506,-0.49511 c 1.48547,-1.02855 2.31188,-1.97742 2.6082,-2.9947 0.16074,-0.55183 0.1951,-1.96042 0.0851,-3.4878 l -0.0623,-0.86438 -0.7647,0.73406 c -0.70238,0.67423 -2.33523,1.81947 -2.59453,1.81974 -0.23782,2.5e-4 -2.04104,-1.27847 -2.65516,-1.88286 l -0.65065,-0.64034 z"
       lpeversion="1"
       is_visible="true"
       id="path-effect5058"
       effect="skeletal" />
    <inkscape:path-effect
       effect="skeletal"
       id="path-effect5056"
       is_visible="true"
       lpeversion="1"
       pattern="m 165.00895,174.31472 c -0.0346,0.47399 -0.0477,1.43583 -0.0293,2.13743 0.0318,1.20978 0.0494,1.30902 0.34068,1.92233 0.36359,0.76563 1.02245,1.4433 2.23797,2.30185 l 0.83245,0.58799 0.71505,-0.49511 c 1.48548,-1.02855 2.31189,-1.97742 2.60821,-2.9947 0.16074,-0.55183 0.1951,-1.96042 0.0851,-3.4878 l -0.0623,-0.86438 -0.7647,0.73406 c -0.70238,0.67423 -2.33523,1.81947 -2.59454,1.81974 -0.23781,2.5e-4 -2.04103,-1.27847 -2.65515,-1.88286 l -0.65065,-0.64034 z"
       copytype="repeated_stretched"
       prop_scale="1"
       scale_y_rel="false"
       spacing="-2.7"
       normal_offset="0"
       tang_offset="0"
       prop_units="false"
       vertical_pattern="true"
       hide_knot="false"
       fuse_tolerance="0" />
    <inkscape:path-effect
       fuse_tolerance="0"
       hide_knot="false"
       vertical_pattern="true"
       prop_units="false"
       tang_offset="0"
       normal_offset="0"
       spacing="-2.7"
       scale_y_rel="false"
       prop_scale="1"
       copytype="repeated_stretched"
       pattern="m 76.895764,145.05464 c -0.03134,-0.47409 -0.04328,-1.43609 -0.02654,-2.13782 0.02885,-1.21 0.0448,-1.30926 0.308799,-1.92268 0.329571,-0.76577 0.926777,-1.44356 2.028546,-2.30226 l 0.754553,-0.58811 0.64814,0.4952 c 1.346471,1.02874 2.095549,1.97778 2.364137,2.99525 0.145698,0.55193 0.176843,1.96077 0.07712,3.48843 l -0.05643,0.86453 -0.69314,-0.73419 c -0.636652,-0.67435 -2.116708,-1.8198 -2.351747,-1.82007 -0.215563,-2.5e-4 -1.850043,1.2787 -2.406693,1.88321 l -0.589765,0.64045 z"
       lpeversion="1"
       is_visible="true"
       id="path-effect5008"
       effect="skeletal" />
    <inkscape:path-effect
       effect="skeletal"
       id="path-effect4989"
       is_visible="true"
       lpeversion="1"
       pattern="m 222.79139,260.72554 c 0.0346,0.47399 0.0478,1.43583 0.0293,2.13743 -0.0318,1.20978 -0.0494,1.30902 -0.34068,1.92233 -0.36359,0.76563 -1.02245,1.4433 -2.23797,2.30185 l -0.83245,0.58799 -0.71505,-0.49511 c -1.48548,-1.02855 -2.31189,-1.97742 -2.60821,-2.9947 -0.16074,-0.55183 -0.1951,-1.96042 -0.0851,-3.4878 l 0.0623,-0.86438 0.7647,0.73406 c 0.70238,0.67423 2.33523,1.81947 2.59454,1.81974 0.23781,2.5e-4 2.04103,-1.27847 2.65515,-1.88286 l 0.65065,-0.64034 z"
       copytype="repeated_stretched"
       prop_scale="1"
       scale_y_rel="false"
       spacing="-2.7"
       normal_offset="0"
       tang_offset="0"
       prop_units="false"
       vertical_pattern="true"
       hide_knot="false"
       fuse_tolerance="0" />
    <inkscape:path-effect
       fuse_tolerance="0"
       hide_knot="false"
       vertical_pattern="true"
       prop_units="false"
       tang_offset="0"
       normal_offset="0"
       spacing="-2.7"
       scale_y_rel="false"
       prop_scale="1"
       copytype="repeated_stretched"
       pattern="m 86.046558,199.04184 c 0.0346,0.47399 0.0477,1.43583 0.0293,2.13743 -0.0318,1.20978 -0.0494,1.30902 -0.34068,1.92233 -0.36359,0.76563 -1.02245,1.4433 -2.23797,2.30185 l -0.83245,0.58799 -0.71505,-0.49511 c -1.48548,-1.02855 -2.31189,-1.97742 -2.60821,-2.9947 -0.16073,-0.55183 -0.19509,-1.96042 -0.0851,-3.4878 l 0.0623,-0.86438 0.7647,0.73406 c 0.70238,0.67423 2.33523,1.81947 2.59454,1.81974 0.23781,2.5e-4 2.04103,-1.27847 2.65515,-1.88286 l 0.65065,-0.64034 z"
       lpeversion="1"
       is_visible="true"
       id="path-effect4970"
       effect="skeletal" />
    <inkscape:path-effect
       fuse_tolerance="0"
       hide_knot="false"
       vertical_pattern="true"
       prop_units="false"
       tang_offset="0"
       normal_offset="0"
       spacing="-2.7"
       scale_y_rel="false"
       prop_scale="1"
       copytype="repeated_stretched"
       pattern="m 154.74406,202.42142 c 0.0346,0.47399 0.0478,1.43583 0.0293,2.13743 -0.0318,1.20978 -0.0494,1.30902 -0.34068,1.92233 -0.36359,0.76563 -1.02245,1.4433 -2.23797,2.30185 l -0.83245,0.58799 -0.71505,-0.49511 c -1.48548,-1.02855 -2.31189,-1.97742 -2.60821,-2.9947 -0.16074,-0.55183 -0.1951,-1.96042 -0.0851,-3.4878 l 0.0623,-0.86438 0.7647,0.73406 c 0.70238,0.67423 2.33523,1.81947 2.59454,1.81974 0.23781,2.5e-4 2.04103,-1.27847 2.65515,-1.88286 l 0.65065,-0.64034 z"
       lpeversion="1"
       is_visible="true"
       id="path-effect4951"
       effect="skeletal" />
    <inkscape:path-effect
       effect="skeletal"
       id="path-effect4927"
       is_visible="true"
       lpeversion="1"
       pattern="m 45.869054,121.07396 c -0.05376,-0.47224 -0.07426,-1.43053 -0.04552,-2.12953 0.0495,-1.2053 0.07684,-1.30417 0.529822,-1.91522 0.565466,-0.76279 1.590127,-1.43796 3.480499,-2.29332 l 1.294629,-0.58582 1.112053,0.49327 c 2.310221,1.02475 3.59546,1.9701 4.05629,2.98362 0.249983,0.5498 0.30342,1.95318 0.132315,3.4749 l -0.09682,0.86119 -1.189262,-0.73135 c -1.092341,-0.67174 -3.631761,-1.81273 -4.035032,-1.813 -0.369852,-2.5e-4 -3.174229,1.27374 -4.129307,1.87589 l -1.011892,0.63797 z"
       copytype="repeated_stretched"
       prop_scale="1"
       scale_y_rel="false"
       spacing="-2.7"
       normal_offset="0"
       tang_offset="0"
       prop_units="false"
       vertical_pattern="true"
       hide_knot="false"
       fuse_tolerance="0" />
    <inkscape:path-effect
       effect="skeletal"
       id="path-effect4859"
       is_visible="true"
       lpeversion="1"
       pattern="m 49.686504,150.84932 0.897267,0.62843 0.948006,-0.64318 m -0.898086,-1.58316 c 0.506967,0.54554 1.033806,1.13252 0.908807,1.58747 m -0.923064,-1.57177 c -0.506967,0.54554 -1.041606,1.13587 -0.916606,1.59082"
       copytype="repeated"
       prop_scale="1"
       scale_y_rel="false"
       spacing="-0.4"
       normal_offset="0"
       tang_offset="0.1"
       prop_units="false"
       vertical_pattern="true"
       hide_knot="false"
       fuse_tolerance="0" />
    <inkscape:path-effect
       effect="skeletal"
       id="path-effect4850"
       is_visible="true"
       lpeversion="1"
       pattern="M 0,0 H 1"
       copytype="repeated"
       prop_scale="1"
       scale_y_rel="false"
       spacing="0"
       normal_offset="0"
       tang_offset="0"
       prop_units="false"
       vertical_pattern="false"
       hide_knot="false"
       fuse_tolerance="0" />
    <inkscape:path-effect
       fuse_tolerance="0"
       hide_knot="true"
       vertical_pattern="true"
       prop_units="false"
       tang_offset="0"
       normal_offset="0"
       spacing="-2.3"
       scale_y_rel="false"
       prop_scale="1"
       copytype="repeated"
       pattern="m 138.80626,85.103768 h 0.47451 v 1.90527 h -0.47451 z m 4.88287,3.55763 c 1.46628,-0.0455 3.59105,-0.13915 4.28856,-2.41386 m -4.32319,2.41477 c -1.46628,-0.0455 -3.54155,-0.0976 -4.23905,-2.37231 m 4.12432,-5.8062 c 2.19864,1.1184 4.50662,3.2879 4.40075,5.81908 m -4.20134,-5.83271 c -2.19864,1.1184 -4.43177,3.42298 -4.32591,5.95416"
       lpeversion="1"
       is_visible="true"
       id="path-effect4788"
       effect="skeletal" />
    <inkscape:path-effect
       effect="skeletal"
       id="path-effect4750"
       is_visible="true"
       lpeversion="1"
       pattern="m 43.82747,229.95241 h 0.47451 v -1.90527 h -0.47451 z m 4.88287,-3.55763 c 1.46628,0.0455 3.59105,0.13915 4.28856,2.41386 m -4.32319,-2.41477 c -1.46628,0.0455 -3.54155,0.0976 -4.23905,2.37231 m 4.12432,5.8062 c 2.19864,-1.1184 4.50662,-3.2879 4.40075,-5.81908 m -4.20134,5.83271 c -2.19864,-1.1184 -4.43177,-3.42298 -4.32591,-5.95416"
       copytype="repeated"
       prop_scale="1"
       scale_y_rel="false"
       spacing="-2.3"
       normal_offset="0"
       tang_offset="0"
       prop_units="false"
       vertical_pattern="true"
       hide_knot="true"
       fuse_tolerance="0" />
    <inkscape:path-effect
       effect="skeletal"
       id="path-effect4622"
       is_visible="true"
       lpeversion="1"
       pattern="m 53.14685,151.53232 c 0.209112,-0.3063 0.378846,-0.99261 0.882241,-0.99608 0.4187,0.0331 0.636794,0.69128 0.860995,0.98664"
       copytype="single_stretched"
       prop_scale="1"
       scale_y_rel="false"
       spacing="0"
       normal_offset="0"
       tang_offset="0"
       prop_units="false"
       vertical_pattern="false"
       hide_knot="false"
       fuse_tolerance="0" />
    <inkscape:path-effect
       effect="skeletal"
       id="path-effect2542"
       is_visible="true"
       lpeversion="1"
       pattern="m 42.283426,152.82043 h 5.489309 c 0.124608,0 0.224924,0.10032 0.224924,0.22493 v 5.68798 c 0,0.12461 -0.100316,0.22492 -0.224924,0.22492 h -5.489309 c -0.124608,0 -0.224924,-0.10031 -0.224924,-0.22492 v -5.68798 c 0,-0.12461 0.100316,-0.22493 0.224924,-0.22493 z"
       copytype="single_stretched"
       prop_scale="1"
       scale_y_rel="false"
       spacing="2"
       normal_offset="0"
       tang_offset="0"
       prop_units="false"
       vertical_pattern="false"
       hide_knot="false"
       fuse_tolerance="0" />
    <marker
       inkscape:stockid="Arrow2Send"
       orient="auto"
       refY="0"
       refX="0"
       id="marker3066"
       style="overflow:visible"
       inkscape:isstock="true">
      <path
         id="path3064"
         style="fill:#f6f6f6;fill-opacity:1;fill-rule:evenodd;stroke:#68787d;stroke-width:0.625;stroke-linejoin:round;stroke-opacity:0.90588235"
         d="M 8.7185878,4.0337352 -2.2072895,0.01601326 8.7185884,-4.0017078 c -1.7454984,2.3720609 -1.7354408,5.6174519 -6e-7,8.035443 z"
         transform="matrix(-0.3,0,0,-0.3,0.69,0)"
         inkscape:connector-curvature="0" />
    </marker>
    <marker
       inkscape:stockid="Arrow1Send"
       orient="auto"
       refY="0"
       refX="0"
       id="marker2984"
       style="overflow:visible"
       inkscape:isstock="true">
      <path
         id="path2982"
         d="M 0,0 5,-5 -12.5,0 5,5 Z"
         style="fill:#f6f6f6;fill-opacity:1;fill-rule:evenodd;stroke:#68787d;stroke-width:1.00000003pt;stroke-opacity:0.90588235"
         transform="matrix(-0.2,0,0,-0.2,-1.2,0)"
         inkscape:connector-curvature="0" />
    </marker>
    <marker
       inkscape:stockid="Arrow2Send"
       orient="auto"
       refY="0"
       refX="0"
       id="Arrow2Send"
       style="overflow:visible"
       inkscape:isstock="true">
      <path
         id="path2576"
         style="fill:#f6f6f6;fill-opacity:1;fill-rule:evenodd;stroke:#68787d;stroke-width:0.625;stroke-linejoin:round;stroke-opacity:0.90588235"
         d="M 8.7185878,4.0337352 -2.2072895,0.01601326 8.7185884,-4.0017078 c -1.7454984,2.3720609 -1.7354408,5.6174519 -6e-7,8.035443 z"
         transform="matrix(-0.3,0,0,-0.3,0.69,0)"
         inkscape:connector-curvature="0" />
    </marker>
    <marker
       inkscape:stockid="Arrow1Send"
       orient="auto"
       refY="0"
       refX="0"
       id="Arrow1Send"
       style="overflow:visible"
       inkscape:isstock="true">
      <path
         id="path2558"
         d="M 0,0 5,-5 -12.5,0 5,5 Z"
         style="fill:#f6f6f6;fill-opacity:1;fill-rule:evenodd;stroke:#68787d;stroke-width:1.00000003pt;stroke-opacity:0.90588235"
         transform="matrix(-0.2,0,0,-0.2,-1.2,0)"
         inkscape:connector-curvature="0" />
    </marker>
  </defs>
  <sodipodi:namedview
     id="base"
     pagecolor="#ffffff"
     bordercolor="#666666"
     borderopacity="1.0"
     inkscape:pageopacity="0.0"
     inkscape:pageshadow="2"
     inkscape:zoom="0.98994949"
     inkscape:cx="331.62557"
     inkscape:cy="306.70394"
     inkscape:document-units="mm"
     inkscape:current-layer="layer1"
     showgrid="false"
     inkscape:window-width="1916"
     inkscape:window-height="1031"
     inkscape:window-x="0"
     inkscape:window-y="0"
     inkscape:window-maximized="1"
     inkscape:snap-nodes="false"
     showguides="false"
     fit-margin-top="0"
     fit-margin-left="0"
     fit-margin-right="0"
     fit-margin-bottom="0"
     inkscape:document-rotation="0" />
  <metadata
     id="metadata1972">
    <rdf:RDF>
      <cc:Work
         rdf:about="">
        <dc:format>image/svg+xml</dc:format>
        <dc:type
           rdf:resource="http://purl.org/dc/dcmitype/StillImage" />
        <dc:title></dc:title>
      </cc:Work>
    </rdf:RDF>
  </metadata>
  <g
     inkscape:label="Layer 1"
     inkscape:groupmode="layer"
     id="layer1"
     transform="translate(-43.510704,-107.98621)">
    <path
       style="opacity:0.99;fill:#dee3db;fill-opacity:1;stroke:#424449;stroke-width:0.42718;stroke-linecap:round;stroke-miterlimit:4;stroke-dasharray:none;stroke-opacity:1"
       id="path5254"
       sodipodi:type="arc"
       sodipodi:cx="107.98766"
       sodipodi:cy="172.36958"
       sodipodi:rx="45.556408"
       sodipodi:ry="43.692524"
       sodipodi:start="4.9528081"
       sodipodi:end="4.9460537"
       sodipodi:open="true"
       sodipodi:arc-type="arc"
       d="m 118.83509,129.93373 a 45.556408,43.692524 0 0 1 33.41695,52.7678 45.556408,43.692524 0 0 1 -54.96231,32.1388 45.556408,43.692524 0 0 1 -33.602576,-52.65926 45.556408,43.692524 0 0 1 54.848836,-32.31664" />
    <path
       style="fill:none;fill-rule:evenodd;stroke:#78705f;stroke-width:0.769331;stroke-linecap:butt;stroke-linejoin:miter;stroke-miterlimit:4;stroke-dasharray:none;stroke-opacity:1"
       d="m 104.11098,183.64248 6.79157,-0.85658"
       id="path3941"
       inkscape:connector-curvature="0" />
    <path
       style="fill:none;fill-rule:evenodd;stroke:#78705f;stroke-width:0.769331;stroke-linecap:butt;stroke-linejoin:miter;stroke-miterlimit:4;stroke-dasharray:none;stroke-opacity:1"
       d="m 101.96627,186.21223 11.61716,-1.14212"
       id="path3943"
       inkscape:connector-curvature="0" />
    <path
       style="fill:none;fill-rule:evenodd;stroke:#8b8374;stroke-width:0.769331;stroke-linecap:butt;stroke-linejoin:miter;stroke-miterlimit:4;stroke-dasharray:none;stroke-opacity:1"
       d="m 97.855581,190.2096 c 0.893633,0 18.944909,-2.85528 18.944909,-2.85528"
       id="path3945"
       inkscape:connector-curvature="0"
       sodipodi:nodetypes="cc" />
    <path
       style="fill:#3ac2ec;fill-opacity:1;fill-rule:evenodd;stroke:#9c8b86;stroke-width:0.769331;stroke-linecap:butt;stroke-linejoin:miter;stroke-miterlimit:4;stroke-dasharray:none;stroke-opacity:1"
       d="m 95.353428,192.77934 23.234312,-3.28356"
       id="path3947"
       inkscape:connector-curvature="0" />
    <path
       style="fill:#3ac2ec;fill-opacity:1;fill-rule:evenodd;stroke:#9c8b86;stroke-width:0.769331;stroke-linecap:butt;stroke-linejoin:miter;stroke-miterlimit:4;stroke-dasharray:none;stroke-opacity:1"
       d="M 92.672548,195.49185 122.51971,191.78"
       id="path3949"
       inkscape:connector-curvature="0"
       sodipodi:nodetypes="cc" />
    <path
       style="fill:#d35f5f;fill-rule:evenodd;stroke:#237e43;stroke-width:0.769331;stroke-linecap:butt;stroke-linejoin:miter;stroke-miterlimit:4;stroke-dasharray:none;stroke-opacity:1"
       d="m 94.89119,155.03381 26.00104,2.2234"
       id="path3929"
       inkscape:connector-curvature="0"
       sodipodi:nodetypes="cc" />
    <path
       style="fill:#d35f5f;fill-rule:evenodd;stroke:#3a5542;stroke-width:0.769331;stroke-linecap:butt;stroke-linejoin:miter;stroke-miterlimit:4;stroke-dasharray:none;stroke-opacity:1"
       d="m 96.678446,159.03119 22.161964,1.85592"
       id="path3931"
       inkscape:connector-curvature="0" />
    <path
       style="fill:#d35f5f;fill-rule:evenodd;stroke:#3a5542;stroke-width:0.769331;stroke-linecap:butt;stroke-linejoin:miter;stroke-miterlimit:4;stroke-dasharray:none;stroke-opacity:1"
       d="m 97.750796,162.45751 19.895544,1.71316"
       id="path3933"
       inkscape:connector-curvature="0"
       sodipodi:nodetypes="cc" />
    <path
       style="fill:#d35f5f;fill-rule:evenodd;stroke:#354238;stroke-width:0.769331;stroke-linecap:butt;stroke-linejoin:miter;stroke-miterlimit:4;stroke-dasharray:none;stroke-opacity:1"
       d="m 99.538053,166.45488 c 8.400107,0.14277 16.264027,0.99935 16.264027,0.99935"
       id="path3935"
       inkscape:connector-curvature="0"
       sodipodi:nodetypes="cc" />
    <path
       style="fill:#d35f5f;fill-rule:evenodd;stroke:#454435;stroke-width:0.769331;stroke-linecap:butt;stroke-linejoin:miter;stroke-miterlimit:4;stroke-dasharray:none;stroke-opacity:1"
       d="m 102.5764,169.88121 11.43842,0.14276"
       id="path3937"
       inkscape:connector-curvature="0" />
    <path
       style="fill:#d35f5f;fill-rule:evenodd;stroke:#454435;stroke-width:0.769331;stroke-linecap:butt;stroke-linejoin:miter;stroke-miterlimit:4;stroke-dasharray:none;stroke-opacity:1"
       d="m 104.18493,172.59371 c 4.28941,0 8.40009,0.28554 8.40009,0.28554"
       id="path3939"
       inkscape:connector-curvature="0" />
    <path
       style="fill:none;fill-rule:evenodd;stroke:#424449;stroke-width:2.88499;stroke-linecap:butt;stroke-linejoin:miter;stroke-miterlimit:4;stroke-dasharray:none;stroke-opacity:1"
       d="M 126.09037,194.0091 C 111.2602,184.13088 93.437566,166.42595 92.221062,142.92889"
       id="path3831-1"
       inkscape:connector-curvature="0"
       sodipodi:nodetypes="cc" />
    <path
       d="m 93.009798,130.49108 -2.653506,-2.74431 -2.653506,-2.74431 3.703395,-0.92585 3.703395,-0.92585 -1.049889,3.67016 z"
       sodipodi:type="star"
       style="opacity:0.99;fill:#424449;fill-opacity:1;fill-rule:nonzero;stroke:#424449;stroke-width:2;stroke-linecap:round;stroke-miterlimit:4;stroke-dasharray:none;stroke-dashoffset:0;stroke-opacity:1"
       id="path3361-5"
       sodipodi:sides="3"
       sodipodi:cx="91.94072"
       sodipodi:cy="126.21477"
       sodipodi:r1="4.4079218"
       sodipodi:r2="2.2039609"
       sodipodi:arg1="1.3258177"
       sodipodi:arg2="2.3730152"
       inkscape:flatsided="false"
       inkscape:rounded="0"
       inkscape:randomized="0"
       inkscape:transform-center-x="0.05938872"
       inkscape:transform-center-y="-0.47717842"
       transform="matrix(0.31265566,-0.44482329,0.27151475,0.34962485,29.431333,138.25869)" />
    <path
       style="fill:none;fill-rule:evenodd;stroke:#5f6167;stroke-width:1.92333;stroke-linecap:butt;stroke-linejoin:miter;stroke-miterlimit:4;stroke-dasharray:none;stroke-opacity:1"
       d="M 88.349297,198.65649 C 100.87598,187.24154 116.95866,171.54664 124.80006,150.73908"
       id="path3831"
       inkscape:connector-curvature="0"
       sodipodi:nodetypes="cc" />
    <path
       d="m 93.009798,130.49108 -2.653506,-2.74431 -2.653506,-2.74431 3.703395,-0.92585 3.703395,-0.92585 -1.049889,3.67016 z"
       sodipodi:type="star"
       style="opacity:0.99;fill:#676b64;fill-opacity:1;fill-rule:nonzero;stroke:#596759;stroke-width:2;stroke-linecap:round;stroke-miterlimit:4;stroke-dasharray:none;stroke-dashoffset:0;stroke-opacity:1"
       id="path3361-5-5"
       sodipodi:sides="3"
       sodipodi:cx="91.94072"
       sodipodi:cy="126.21477"
       sodipodi:r1="4.4079218"
       sodipodi:r2="2.2039609"
       sodipodi:arg1="1.3258177"
       sodipodi:arg2="2.3730152"
       inkscape:flatsided="false"
       inkscape:rounded="0"
       inkscape:randomized="0"
       inkscape:transform-center-x="2.0878301"
       inkscape:transform-center-y="0.34438097"
       transform="matrix(-0.17603463,-0.38270579,-0.25478702,0.25745496,173.33751,152.15407)" />
    <path
       style="fill:#6b6e76;fill-opacity:1;fill-rule:evenodd;stroke:#191e2a;stroke-width:0.716934;stroke-linecap:butt;stroke-linejoin:miter;stroke-miterlimit:4;stroke-dasharray:none;stroke-opacity:1"
       d="m 95.766864,134.76138 c 0.378507,-0.0508 1.281314,-0.24991 1.842606,-0.39969 1.053249,-0.28101 1.09898,-0.29251 1.575736,-0.84922 0.591411,-0.6906 1.012914,-1.76508 1.613494,-3.76096 0.13598,-0.45184 0.27748,-0.90309 0.42448,-1.35362 -0.20484,-0.35021 -0.4135,-0.69918 -0.62596,-1.04683 -1.322781,-2.16446 -2.587095,-3.27799 -3.779324,-3.52099 -0.659731,-0.13446 -2.203216,0.12168 -3.822342,0.73815 -0.302841,0.1153 -0.604372,0.23352 -0.904527,0.35464 0.373136,0.3042 0.740491,0.61252 1.102048,0.92478 1.053203,0.90961 2.71857,2.99001 2.824802,3.45191 0.05583,0.24274 -0.488216,3.49698 -0.732704,4.44224 -0.09733,0.37632 -0.189533,0.75263 -0.27656,1.12881 0.252528,-0.0389 0.505298,-0.0753 0.758251,-0.10922 z m -4.270459,1.4155 c 0.362609,-0.0932 1.235744,-0.39642 1.767881,-0.60678 1.007048,-0.39804 1.048763,-0.41198 1.456815,-1.01843 0.505766,-0.75167 0.799881,-1.86298 1.173478,-3.91392 0.08456,-0.46416 0.174913,-0.92846 0.27103,-1.39279 -0.242591,-0.32547 -0.488938,-0.64916 -0.739041,-0.97097 -1.556968,-2.00336 -2.943444,-2.96372 -4.1598,-3.06579 -0.673355,-0.0565 -2.183576,0.37898 -3.727149,1.18623 -0.288641,0.15095 -0.575591,0.30477 -0.860783,0.46147 0.408189,0.25652 0.810757,0.51806 1.207687,0.78445 1.15924,0.77799 3.051947,2.64158 3.212266,3.0908 0.08082,0.22643 -0.07357,3.53405 -0.1998,4.49105 -0.05071,0.38443 -0.096,0.76824 -0.135829,1.1513 0.243834,-0.0682 0.488269,-0.13369 0.733245,-0.19662 z m -4.023317,1.9161 c 0.339612,-0.13572 1.168336,-0.54834 1.660584,-0.81862 0.941943,-0.51714 0.978724,-0.53223 1.307517,-1.18319 0.4071,-0.80599 0.562037,-1.93888 0.691686,-4.01807 0.02933,-0.47026 0.06472,-0.9414 0.106143,-1.4133 -0.278517,-0.29477 -0.560739,-0.5872 -0.846661,-0.87718 -1.779795,-1.80509 -3.276424,-2.5907 -4.502213,-2.54295 -0.678808,0.0264 -2.13477,0.64452 -3.578915,1.64295 -0.112877,0.078 -0.225391,0.15657 -0.337539,0.2356 -0.15568,0.11051 -0.31051,0.22192 -0.464485,0.33421 0.300906,0.13818 0.599485,0.27913 0.895681,0.42283 0.13623,0.0662 0.271917,0.13302 0.407061,0.20038 1.257997,0.62704 3.36346,2.23558 3.579577,2.66458 0.102981,0.20442 0.370143,3.52515 0.369704,4.48036 -4.7e-5,0.10172 2.98e-4,0.20335 0.001,0.30489 0.0018,0.28518 0.0065,0.5696 0.01418,0.85324 0.12706,-0.0535 0.254329,-0.1062 0.381797,-0.15802 0.104761,-0.0431 0.20971,-0.0857 0.314844,-0.12771 z m -3.738348,2.40888 c 0.324154,-0.18004 1.091464,-0.69337 1.54654,-1.02545 0.866245,-0.63204 0.900287,-0.65167 1.140609,-1.33759 0.08852,-0.25265 0.152355,-0.53756 0.193814,-0.87067 0.09529,-0.77501 0.06767,-1.75544 -0.0237,-3.20088 -0.02971,-0.47013 -0.05309,-0.94189 -0.07018,-1.41512 -0.312627,-0.25811 -0.628903,-0.51329 -0.948826,-0.76548 -1.1375,-0.89666 -2.147961,-1.47374 -3.027447,-1.76444 -0.66085,-0.21766 -1.250517,-0.27486 -1.773382,-0.18549 -0.673979,0.11519 -2.03924,0.91921 -3.336484,2.0935 -0.242381,0.2194 -0.482088,0.4411 -0.719099,0.66504 0.46048,0.14501 0.916873,0.29627 1.369005,0.45369 1.324085,0.46104 3.620932,1.78518 3.890507,2.18267 0.130754,0.19279 0.820069,3.44567 0.940015,4.39653 0.04853,0.38475 0.102191,0.76757 0.160892,1.14837 0.218264,-0.12749 0.437528,-0.25239 0.657734,-0.37468 z m -3.420225,2.87717 c 0.302166,-0.22127 0.998882,-0.82643 1.412167,-1.21682 0.78286,-0.7394 0.815003,-0.76548 0.967581,-1.47766 0.189535,-0.88468 0.0499,-2.01602 -0.348257,-4.06239 -0.08998,-0.46249 -0.174012,-0.92743 -0.252003,-1.3947 -0.343432,-0.21573 -0.690087,-0.42806 -1.039893,-0.63696 -2.177195,-1.30017 -3.830971,-1.67979 -5.004835,-1.32414 -0.651977,0.19754 -1.901678,1.16282 -3.039774,2.48576 -0.212693,0.24723 -0.42254,0.49642 -0.629518,0.74749 0.47455,0.0875 0.94588,0.18152 1.413816,0.28208 1.368453,0.2941 3.816118,1.32372 4.132158,1.68293 0.156809,0.17822 1.242177,3.31405 1.479436,4.2485 0.09554,0.37628 0.195816,0.75006 0.300751,1.12124 0.201506,-0.15413 0.404315,-0.30592 0.608371,-0.45533 z m -3.050875,3.28382 c 0.27411,-0.25728 0.892028,-0.94255 1.256227,-1.38242 0.688434,-0.83138 0.717554,-0.86253 0.782157,-1.58895 0.08023,-0.90215 -0.197334,-2.01108 -0.847561,-3.99222 -0.147002,-0.44791 -0.288551,-0.89888 -0.424556,-1.35281 -0.367878,-0.17101 -0.738462,-0.33836 -1.111681,-0.50203 -2.323094,-1.01872 -4.008771,-1.19315 -5.128604,-0.69687 -0.621526,0.27545 -1.741085,1.38547 -2.707159,2.83654 -0.180569,0.27121 -0.358119,0.54402 -0.53263,0.81837 0.481353,0.029 0.960353,0.065 1.436827,0.10778 1.392431,0.12511 3.949241,0.84849 4.306433,1.16586 0.179095,0.15913 1.637149,3.13645 1.986717,4.0368 0.140504,0.36188 0.285362,0.72068 0.434492,1.0763 0.181524,-0.17756 0.364656,-0.35302 0.549338,-0.52635 z m -2.654088,3.63825 c 0.243997,-0.29029 0.78019,-1.04755 1.09219,-1.52985 0.582591,-0.90048 0.6146,-0.94459 0.594583,-1.65258 0,0 0,0 0,0 -2.2e-5,-6.9e-4 -6.9e-4,-0.0213 -7.11e-4,-0.022 -0.02947,-0.90474 -0.439432,-1.97277 -1.326801,-3.85962 -0.200657,-0.42668 -0.396357,-0.85705 -0.587009,-1.29099 -0.386155,-0.12466 -0.7745,-0.24542 -1.164963,-0.36223 -1.96239,-0.58708 -3.446591,-0.67898 -4.493211,-0.36293 -0.249611,0.0755 -0.475072,0.17432 -0.677359,0.29558 -0.579925,0.34762 -1.5481,1.58102 -2.328184,3.12168 -0.145899,0.28815 -0.288839,0.57726 -0.428832,0.86729 0.479475,-0.0251 0.957512,-0.0436 1.433969,-0.0557 1.388522,-0.035 4.013957,0.38068 4.40343,0.65096 0.204042,0.1416 1.988691,2.90922 2.442422,3.7715 0.180728,0.34345 0.365152,0.68364 0.553183,1.02053 0.160711,-0.19917 0.323148,-0.39641 0.487293,-0.59167 z m -2.225424,3.94595 c 0.212154,-0.32079 0.657099,-1.13398 0.913645,-1.65506 0.481171,-0.9772 0.502603,-1.01797 0.397793,-1.74106 -0.130097,-0.89757 -0.659315,-1.91477 -1.761126,-3.67948 -0.249342,-0.39937 -0.494494,-0.80279 -0.73536,-1.21024 -0.397744,-0.0774 -0.797044,-0.15092 -1.197839,-0.22045 -2.494362,-0.43271 -4.163456,-0.20952 -5.128234,0.52553 -0.534835,0.40749 -1.355244,1.73339 -1.958061,3.34285 -0.112779,0.30109 -0.222642,0.60287 -0.329599,0.90529 0.473876,-0.0767 0.946986,-0.14711 1.419186,-0.2111 1.373492,-0.1861 4.033583,-0.0662 4.44799,0.15663 0.223471,0.12016 2.298745,2.66289 2.84948,3.47774 0.21779,0.32224 0.438802,0.64102 0.662945,0.95631 0.137923,-0.21732 0.277656,-0.43299 0.41918,-0.64696 z m -1.78708,4.19399 c 0.178451,-0.3461 0.532748,-1.20361 0.732738,-1.75559 0.373135,-1.02969 0.389646,-1.07528 0.206109,-1.78481 -0.227849,-0.88085 -0.867628,-1.8385 -2.160291,-3.46805 -0.292639,-0.36891 -0.581652,-0.74205 -0.866939,-1.11939 -0.403718,-0.0319 -0.808571,-0.0598 -1.214498,-0.0839 -2.526622,-0.14992 -4.159931,0.25131 -5.038422,1.08387 -0.486511,0.46107 -1.157062,1.86344 -1.58341,3.52376 -0.07979,0.31069 -0.156697,0.62178 -0.230745,0.93322 0.463482,-0.12591 0.926868,-0.2456 1.390016,-0.35906 1.344841,-0.32944 4.010038,-0.49601 4.444309,-0.32011 0.240016,0.0972 2.571782,2.40022 3.210386,3.15866 0.251135,0.29825 0.505016,0.59286 0.761554,0.8838 0.11451,-0.23218 0.230914,-0.46299 0.349193,-0.69237 z m -1.344324,4.38266 c 0.143054,-0.36596 0.406966,-1.25672 0.549466,-1.83143 0.264911,-1.06815 0.276175,-1.11738 0.0189,-1.80588 -0.319409,-0.85479 -1.059094,-1.74415 -2.521171,-3.22698 -0.331113,-0.33582 -0.659162,-0.67604 -0.984048,-1.02063 -0.405261,0.0121 -0.811236,0.028 -1.217865,0.0478 -2.531218,0.12304 -4.113169,0.69229 -4.899114,1.61104 -0.434931,0.50843 -0.953576,1.97113 -1.204232,3.66444 -0.04692,0.31693 -0.091,0.63397 -0.132266,0.95107 0.448291,-0.17258 0.897157,-0.33911 1.346457,-0.49955 1.302852,-0.46524 3.943038,-0.90859 4.392386,-0.77927 0.252961,0.0728 2.808519,2.1212 3.525142,2.81424 0.280762,0.27152 0.563794,0.53921 0.849007,0.80302 0.09047,-0.24374 0.182925,-0.48639 0.277336,-0.72788 z m -0.897159,4.51194 c 0.106176,-0.38017 0.279543,-1.29347 0.363831,-1.88257 0.156397,-1.09265 0.16229,-1.14419 -0.163828,-1.80424 -0.404881,-0.81947 -1.233611,-1.63166 -2.843766,-2.9563 -0.364764,-0.30009 -0.727024,-0.60475 -1.086685,-0.91395 -0.402375,0.0545 -0.805043,0.11274 -1.207944,0.17477 -2.508147,0.38614 -4.023174,1.11343 -4.710308,2.10706 -0.380062,0.54959 -0.744818,2.05642 -0.820525,3.76487 -0.01418,0.3198 -0.02556,0.63943 -0.03417,0.95883 0.428304,-0.21677 0.857855,-0.42763 1.288509,-0.63257 1.247695,-0.59374 3.832416,-1.30366 4.292222,-1.22084 0.261733,0.0471 3.009529,1.82558 3.793749,2.4445 0.306669,0.24202 0.615134,0.48002 0.925303,0.71396 0.06581,-0.25202 0.13369,-0.5032 0.203608,-0.75352 z m -0.445583,4.58186 c 0.06804,-0.38864 0.150251,-1.31399 0.175832,-1.90903 0.04749,-1.10322 0.0481,-1.15569 -0.342081,-1.77991 -0.484367,-0.77492 -1.391075,-1.501 -3.128077,-2.65599 -0.393589,-0.26172 -0.785239,-0.52818 -1.174851,-0.79936 -0.395058,0.0953 -0.789989,0.19427 -1.184732,0.29697 -2.457418,0.63933 -3.889936,1.51475 -4.472006,2.57191 -0.321864,0.58457 -0.530826,2.1193 -0.43229,3.82507 0.01844,0.3193 0.03963,0.63816 0.06356,0.9565 0.403521,-0.25847 0.80896,-0.51118 1.216174,-0.75812 1.179425,-0.71521 3.678113,-1.68097 4.143816,-1.64482 0.265915,0.0206 3.17523,1.51298 4.016206,2.04941 0.328858,0.20977 0.659036,0.41532 0.990445,0.61663 0.04053,-0.25699 0.0832,-0.51343 0.128007,-0.76926 z m 0.0327,4.58997 c 0.0261,-0.3925 0.0087,-1.31866 -0.02941,-1.91049 -0.0288,-0.44719 -0.04426,-0.71541 -0.08855,-0.92952 -0.06054,-0.30513 -0.175005,-0.46559 -0.434726,-0.80125 -0.557966,-0.72112 -1.53139,-1.35216 -3.374103,-2.32606 -0.417593,-0.22071 -0.833807,-0.44634 -1.248546,-0.67685 -0.383312,0.13448 -0.766076,0.27261 -1.148232,0.41439 -2.379044,0.88261 -3.71344,1.8963 -4.184205,3.00559 -0.03606,0.085 -0.06825,0.18883 -0.09616,0.30929 -0.177598,0.74778 -0.190193,2.09337 0.03954,3.55067 0.05001,0.31727 0.102889,0.6339 0.15862,0.94985 0.376392,-0.30027 0.755205,-0.59472 1.13626,-0.8833 1.105647,-0.83732 3.492793,-2.05205 3.960445,-2.06336 0.261037,-0.006 3.319194,1.18232 4.21127,1.62732 0.349906,0.17455 0.700873,0.34464 1.052789,0.51024 0.01281,-0.25927 0.02782,-0.51812 0.04501,-0.77652 z m 0.505934,4.55915 c -0.01364,-0.39127 -0.124308,-1.31252 -0.221498,-1.89673 -0.180654,-1.08628 -0.190188,-1.13638 -0.700924,-1.66725 -0.634015,-0.65902 -1.669886,-1.1843 -3.605084,-1.96566 -0.438302,-0.17697 -0.875479,-0.35909 -1.311411,-0.54634 -0.367652,0.17263 -0.734535,0.34899 -1.100572,0.52907 -2.279013,1.12125 -3.508796,2.27218 -3.866219,3.43145 -0.197657,0.64109 -0.09224,2.19496 0.357208,3.85739 0.0841,0.31107 0.171007,0.62116 0.260715,0.93021 0.341963,-0.33889 0.687177,-0.67215 1.035464,-0.99974 1.011047,-0.95097 3.258967,-2.41031 3.725526,-2.47066 0.258227,-0.0334 3.43146,0.83104 4.361434,1.1782 0.365977,0.13662 0.732423,0.26855 1.099228,0.39576 -0.01358,-0.25865 -0.02487,-0.51724 -0.03387,-0.7757 z m 0.970105,4.46254 c -0.05407,-0.38275 -0.260329,-1.28636 -0.416286,-1.85234 -0.291312,-1.05741 -0.304643,-1.105 -0.867122,-1.57829 -0.697901,-0.58725 -1.781464,-1 -3.790134,-1.57569 -0.454949,-0.13039 -0.909471,-0.26614 -1.363448,-0.40723 -0.348366,0.21043 -0.695441,0.4245 -1.041151,0.64221 -2.152303,1.35546 -3.251705,2.63201 -3.48113,3.82492 -0.126913,0.6599 0.14754,2.19688 0.778253,3.80421 0.117995,0.30071 0.23875,0.60009 0.362248,0.89807 0.30161,-0.37438 0.607302,-0.74332 0.916897,-1.10679 0.900005,-1.05661 2.9714,-2.74529 3.430957,-2.85569 0.248857,-0.0598 3.500643,0.45733 4.454135,0.69811 0.377411,0.0953 0.7547,0.18568 1.131757,0.27112 -0.04072,-0.25395 -0.07904,-0.50817 -0.114976,-0.76261 z m 1.439184,4.29227 c -0.09483,-0.36712 -0.399695,-1.24004 -0.613771,-1.77731 -0.4028,-1.01108 -0.418863,-1.05481 -1.027554,-1.46123 -0.754708,-0.50393 -1.871299,-0.79349 -3.927435,-1.14935 -0.465589,-0.0806 -0.931451,-0.16675 -1.397465,-0.25844 -0.323602,0.2462 -0.645393,0.49597 -0.965298,0.7493 -1.99148,1.57707 -2.941094,2.96693 -3.034961,4.17929 -0.05195,0.67093 0.393444,2.17105 1.204533,3.70108 0.151706,0.28619 0.306118,0.57068 0.463218,0.85343 0.255334,-0.40673 0.515579,-0.80821 0.780559,-1.20443 0.772086,-1.15446 2.630525,-3.05679 3.076738,-3.21847 0.233219,-0.0845 3.526451,0.0602 4.489372,0.18704 0.384209,0.0506 0.767704,0.0961 1.150375,0.13632 -0.0686,-0.24514 -0.134698,-0.49091 -0.198311,-0.73723 z m 1.913171,4.04833 c -0.135516,-0.34469 -0.542785,-1.17322 -0.813953,-1.67164 -0.515203,-0.9471 -0.532766,-0.98599 -1.182222,-1.31608 -0.804506,-0.40889 -1.939316,-0.56491 -4.016983,-0.68664 -0.470224,-0.0276 -0.941419,-0.0609 -1.413466,-0.1 -0.293361,0.27996 -0.584389,0.56341 -0.87301,0.85034 -1.79658,1.7861 -2.576928,3.27693 -2.527714,4.49454 0.02725,0.67411 0.645466,2.11756 1.636048,3.54803 0.18523,0.26749 0.373111,0.53294 0.563625,0.79629 0.203134,-0.43595 0.412011,-0.86685 0.626452,-1.29267 0.626744,-1.24455 2.236888,-3.34479 2.662867,-3.55898 0.212016,-0.10661 3.508184,-0.36125 4.467148,-0.35501 0.386369,0.003 0.771434,-3.5e-4 1.155083,-0.009 -0.09723,-0.23226 -0.191842,-0.46548 -0.283875,-0.69959 z m 2.392067,3.73072 c -0.175855,-0.31602 -0.68989,-1.08534 -1.016834,-1.53533 -0.628533,-0.86519 -0.646335,-0.89882 -1.331123,-1.14282 -0.84732,-0.30191 -1.985495,-0.31451 -4.058782,-0.18756 -0.468852,0.0287 -0.939375,0.0514 -1.411448,0.0682 -0.257641,0.31171 -0.512429,0.62683 -0.764289,0.94535 -1.567634,1.98258 -2.159175,3.56199 -1.959386,4.77069 0.110637,0.66934 0.903637,2.03647 2.072796,3.34503 0.218567,0.24463 0.439729,0.48687 0.66347,0.72665 0.145011,-0.46203 0.296595,-0.91921 0.454575,-1.37152 0.463375,-1.32665 1.791091,-3.60947 2.189345,-3.87722 0.186487,-0.12538 3.4446,-0.80778 4.38746,-0.92803 0.383893,-0.049 0.765891,-0.10353 1.145881,-0.16375 -0.12659,-0.21528 -0.25047,-0.43185 -0.371665,-0.64967 z m 2.851122,3.35555 c -0.215587,-0.29028 -0.823154,-0.98197 -1.203276,-1.38192 -0.165305,-0.17394 -0.288386,-0.30544 -0.400194,-0.41703 -0.381051,-0.37319 -0.529636,-0.41549 -1.068453,-0.52699 -0.883076,-0.18274 -2.009906,-0.0425 -4.052831,0.34788 -0.461474,0.0882 -0.925318,0.17018 -1.391412,0.24601 -0.216443,0.34145 -0.429513,0.68622 -0.639133,1.03431 -1.304663,2.16655 -1.687815,3.82206 -1.329979,5.00774 0.05457,0.18082 0.169946,0.41204 0.33766,0.67676 0.443239,0.68809 1.221059,1.56657 2.192496,2.38773 0.252111,0.21312 0.506342,0.42301 0.762618,0.62965 0.07938,-0.47768 0.166129,-0.95192 0.260158,-1.42249 0.276512,-1.38376 1.281824,-3.82744 1.645041,-4.15015 0.163741,-0.14548 3.319616,-1.27257 4.228426,-1.51822 0.373443,-0.10094 0.744036,-0.2071 1.111674,-0.31838 -0.153533,-0.19687 -0.30448,-0.39519 -0.452795,-0.5949 z m 3.279093,2.94853 c -0.255045,-0.26035 -0.950654,-0.86228 -1.385294,-1.20896 -0.832198,-0.66385 -0.857578,-0.69067 -1.580995,-0.74094 -0.899023,-0.0625 -1.991641,0.23179 -3.969124,0.89712 -0.446423,0.1502 -0.89633,0.29436 -1.349612,0.43238 -0.169379,0.36859 -0.334653,0.74015 -0.49578,1.1146 -1.00281,2.33051 -1.149068,4.0294 -0.62785,5.15044 0.289966,0.62366 1.430001,1.73779 2.918957,2.68428 0.278038,0.17675 0.557776,0.35011 0.839138,0.52004 0.01466,-0.48384 0.03702,-0.96526 0.06699,-1.44405 0.08803,-1.40643 0.754029,-3.96629 1.068903,-4.33418 0.144659,-0.16901 3.113847,-1.70925 3.985584,-2.07644 0.356764,-0.15027 0.710043,-0.30527 1.059729,-0.46489 -0.179178,-0.1747 -0.356075,-0.35119 -0.530645,-0.5294 z m 3.651055,2.48493 c -0.287704,-0.22394 -1.057626,-0.72732 -1.535714,-1.01312 -0.914865,-0.54699 -0.944316,-0.57029 -1.66868,-0.52323 -0.899795,0.0585 -1.94556,0.49703 -3.814451,1.42416 -0.422027,0.20935 -0.848219,0.4133 -1.278467,0.61172 -0.11761,0.3882 -0.230863,0.77875 -0.339717,1.17157 -0.677527,2.44499 -0.595682,4.14635 0.07061,5.18665 0.370398,0.5783 1.648648,1.52865 3.251346,2.26689 0.299307,0.13788 0.599893,0.27219 0.901682,0.40291 -0.0505,-0.48151 -0.09297,-0.96164 -0.127511,-1.44016 -0.101435,-1.40536 0.215595,-4.03211 0.478183,-4.43877 0.120906,-0.18725 2.856777,-2.11134 3.671624,-2.59226 0.333382,-0.19676 0.662641,-0.39776 0.987672,-0.60288 -0.200852,-0.14906 -0.399727,-0.30025 -0.59658,-0.45348 z m 3.95327,1.98115 c -0.315159,-0.18422 -1.152787,-0.58658 -1.661776,-0.80739 -2.52e-4,-1.1e-4 -0.01882,-0.008 -0.01908,-0.008 -0.960175,-0.41059 -0.996869,-0.42825 -1.702959,-0.28535 -0.88331,0.17876 -1.861218,0.75349 -3.589112,1.92288 -0.390209,0.26407 -0.785264,0.52337 -1.185059,0.77776 -0.06447,0.40053 -0.124329,0.80279 -0.179539,1.2067 -0.34364,2.51409 -0.0347,4.18889 0.76625,5.13092 0.208855,0.24564 0.639322,0.55447 1.218344,0.86542 0.635921,0.3382 1.431446,0.66965 2.302163,0.93556 0.312909,0.0956 0.626147,0.18762 0.939666,0.27624 -0.111183,-0.46905 -0.215063,-0.93783 -0.311509,-1.40619 -0.28277,-1.37321 -0.321289,-4.01897 -0.116219,-4.45616 0.0977,-0.20829 2.542571,-2.46777 3.292925,-3.05369 0.305062,-0.23822 0.605866,-0.47983 0.902445,-0.72473 -0.220796,-0.12234 -0.439667,-0.2469 -0.656544,-0.37369 z m 4.230091,1.47044 c -0.348575,-0.14795 -1.228247,-0.43774 -1.777263,-0.59365 -1.037742,-0.29477 -1.076346,-0.30915 -1.765415,-0.0764 -0.856496,0.28936 -1.752584,0.98665 -3.306495,2.37444 -0.351147,0.3136 -0.707641,0.62334 -1.069527,0.92909 -0.01004,0.40547 -0.01532,0.81188 -0.0159,1.21916 -0.0036,2.53407 0.520874,4.14738 1.424493,4.97127 0.502593,0.45825 1.966615,1.03508 3.671151,1.33921 0.318638,0.0569 0.637289,0.11048 0.955901,0.16091 -0.163548,-0.45273 -0.320482,-0.90591 -0.470673,-1.35937 -0.43837,-1.32356 -0.802123,-3.95567 -0.655932,-4.40769 0.07511,-0.23224 2.209291,-2.75134 2.901295,-3.43626 0.276349,-0.27352 0.548561,-0.54972 0.816673,-0.82847 -0.237652,-0.0953 -0.473777,-0.19274 -0.708306,-0.29229 z m 4.440735,0.97976 c -0.374626,-0.11194 -1.281851,-0.30123 -1.860789,-0.39549 -1.07868,-0.17566 -1.125517,-0.1834 -1.787487,0.12858 -0.823295,0.38801 -1.641342,1.19212 -3.011437,2.76035 -0.309916,0.35472 -0.624969,0.7064 -0.945205,1.05491 0.04104,0.40311 0.08644,0.80668 0.136159,1.21066 0.309449,2.51419 1.010805,4.05206 1.994876,4.76444 0.546295,0.39547 2.053355,0.79745 3.766076,0.90873 0.320351,0.0208 0.640397,0.0387 0.960088,0.0536 -0.209282,-0.43243 -0.41264,-0.866 -0.609944,-1.30056 -0.573209,-1.26249 -1.230937,-3.85287 -1.138069,-4.31337 0.05112,-0.25348 1.885434,-2.9755 2.513193,-3.74346 0.247041,-0.30221 0.490069,-0.60638 0.729119,-0.91238 -0.250012,-0.07 -0.498895,-0.14198 -0.74658,-0.216 z m 4.575472,0.52808 c -0.39272,-0.0769 -1.31419,-0.1764 -1.91235,-0.21288 -1.102304,-0.0673 -1.155712,-0.068 -1.785155,0.31106 -0.783335,0.47168 -1.520567,1.3639 -2.708779,3.07728 -0.269066,0.38798 -0.543059,0.77373 -0.822025,1.15713 0.08685,0.39651 0.177687,0.79302 0.272447,1.18947 0.589872,2.4678 1.444011,3.91876 2.490145,4.52039 0.579935,0.33352 2.108793,0.5699 3.808407,0.50279 0.31805,-0.0126 0.63547,-0.0278 0.95223,-0.0457 -0.24839,-0.40811 -0.49154,-0.81808 -0.72932,-1.22973 -0.68782,-1.19076 -1.60721,-3.70984 -1.56264,-4.17322 0.026,-0.27017 1.57075,-3.14208 2.12862,-3.97527 0.21714,-0.3243 0.43039,-0.64984 0.63979,-0.97648 -0.25788,-0.0463 -0.51502,-0.0946 -0.77137,-0.14481 z"
       id="path4916"
       inkscape:connector-curvature="0"
       sodipodi:nodetypes="cc"
       inkscape:path-effect="#path-effect4927"
       inkscape:original-d="m 101.21865,128.35709 c -50.453561,5.60631 -53.127633,85.67619 1.47125,88.33465" />
    <path
       inkscape:original-d="m 114.58673,127.72468 c 63.24935,13.32314 36.45663,88.99316 -1.16699,89.72424"
       inkscape:path-effect="#path-effect1096"
       sodipodi:nodetypes="cc"
       inkscape:connector-curvature="0"
       id="path4916-1"
       d="m 123.11275,124.47644 c -0.51123,-0.22243 -1.47998,-0.53713 -2.26296,-0.72686 -1.28734,-0.31211 -1.44031,-0.30301 -2.1872,-0.033 -0.94547,0.34177 -1.92108,1.17832 -3.19906,2.82963 -0.29263,0.37811 -0.58206,0.75758 -0.86834,1.1383 0.0897,0.39772 0.17705,0.79563 0.26187,1.19368 0.52947,2.4848 1.10157,3.94223 1.92936,4.638 0.44364,0.37288 1.72893,0.77518 3.1515,1.0465 0.26973,0.0514 0.53904,0.10468 0.80787,0.15973 -0.0941,-0.44925 -0.19336,-0.89888 -0.29757,-1.34877 -0.27285,-1.17805 -0.65706,-4.06491 -0.56193,-4.39438 0.12022,-0.41644 2.14535,-2.62232 3.12137,-3.36966 0.32607,-0.24967 0.65514,-0.49705 0.98724,-0.74201 -0.29315,-0.13247 -0.58722,-0.26286 -0.88215,-0.39118 z m 5.38843,1.9788 c -0.49682,-0.26958 -1.4391,-0.66832 -2.21301,-0.92672 -1.26641,-0.423 -1.42596,-0.42619 -2.19451,-0.21948 -0.97442,0.26204 -2.01952,1.01894 -3.41733,2.57188 -0.32028,0.35581 -0.63707,0.71366 -0.95045,1.07344 0.0611,0.4038 0.11936,0.80744 0.17475,1.21085 0.3458,2.51864 0.79461,4.00705 1.5545,4.75968 0.40618,0.4023 1.64005,0.89755 3.01216,1.28232 0.26048,0.0731 0.52027,0.14815 0.77934,0.22534 -0.0508,-0.45367 -0.10739,-0.90826 -0.16962,-1.36363 -0.16146,-1.18138 -0.29537,-4.10403 -0.17696,-4.41443 0.15736,-0.41254 2.35131,-2.42125 3.40005,-3.08071 0.34793,-0.21877 0.69903,-0.43464 1.05335,-0.64747 -0.28285,-0.15925 -0.56696,-0.31626 -0.85227,-0.47107 z m 5.23251,2.49229 c -0.4757,-0.32075 -1.38048,-0.81008 -2.13653,-1.14409 -1.23106,-0.54402 -1.39621,-0.56201 -2.18264,-0.42853 -0.99859,0.16945 -2.11342,0.82808 -3.63603,2.25326 -0.34906,0.32671 -0.69437,0.65614 -1.036,0.98819 0.0274,0.40687 0.0515,0.81322 0.0724,1.21899 0.13046,2.53387 0.434,4.04557 1.10966,4.85838 0.35986,0.4329 1.52473,1.03337 2.82905,1.54604 0.24796,0.0975 0.49498,0.19726 0.74103,0.29941 -0.001,-0.45546 -0.009,-0.91235 -0.0229,-1.37055 -0.036,-1.17712 0.12161,-4.11559 0.26344,-4.40184 0.19926,-0.40213 2.56599,-2.1737 3.68963,-2.7267 0.36994,-0.18206 0.74323,-0.36059 1.11992,-0.53549 -0.26877,-0.18804 -0.53913,-0.37373 -0.81104,-0.55707 z m 5.01488,3.06102 c -0.35646,-0.30357 -0.99404,-0.75825 -1.62929,-1.15025 -0.13974,-0.0858 -0.27603,-0.16674 -0.40531,-0.2406 -1.18153,-0.67511 -1.35088,-0.71057 -2.1516,-0.66013 -1.01807,0.0641 -2.2027,0.60568 -3.85516,1.87376 -0.37899,0.29083 -0.75397,0.58506 -1.12498,0.88258 -0.0114,0.40693 -0.0264,0.81296 -0.0451,1.21806 -0.11663,2.53052 0.0198,4.0578 0.59484,4.93411 0.18377,0.28006 0.63605,0.64207 1.22617,1.02766 0,0 0,0 0,0 0.4005,0.26028 0.87405,0.53614 1.37138,0.79946 0.23181,0.12275 0.4626,0.24794 0.69228,0.37556 0.0548,-0.45115 0.10265,-0.90492 0.14366,-1.36107 0.10386,-1.15512 0.60049,-4.09308 0.76341,-4.34812 0.24798,-0.38821 2.78872,-1.87548 3.98986,-2.29663 0.3915,-0.13727 0.78621,-0.27002 1.18406,-0.39811 -0.24895,-0.22132 -0.50039,-0.44009 -0.75424,-0.65628 z m 4.65402,3.69414 c -0.39985,-0.43935 -1.17254,-1.13388 -1.85536,-1.64861 -1.09707,-0.8272 -1.27349,-0.88556 -2.07751,-0.93435 -1.02675,-0.0623 -2.28188,0.33592 -4.06975,1.41485 -0.34675,0.20924 -0.69042,0.42165 -1.03098,0.63713 -0.0623,0.0395 -0.12458,0.079 -0.18672,0.11866 -0.0101,0.0742 -0.0204,0.14844 -0.0309,0.22259 -0.0463,0.32932 -0.0954,0.6577 -0.1473,0.98509 -0.39754,2.50833 -0.45411,4.03113 0.005,4.96336 0.24293,0.49307 1.21549,1.32036 2.33744,2.10227 0.21355,0.14884 0.42558,0.30006 0.636,0.45367 0.11219,-0.4387 0.21753,-0.88119 0.316,-1.32721 0.24784,-1.12264 1.10969,-3.98656 1.29944,-4.21563 0.29715,-0.35873 2.99727,-1.51413 4.24685,-1.7786 0.40607,-0.0859 0.81485,-0.16667 1.22626,-0.24205 -0.22002,-0.2527 -0.44295,-0.5031 -0.66871,-0.75117 z m 4.16058,4.29342 c -0.3417,-0.49292 -1.01894,-1.28606 -1.63369,-1.89031 -0.98479,-0.96819 -1.15606,-1.0505 -1.94762,-1.20386 -1.01209,-0.19613 -2.31023,0.0375 -4.21834,0.88594 -0.43796,0.19473 -0.87213,0.39474 -1.30243,0.59986 -0.10447,0.39444 -0.21308,0.78677 -0.3258,1.17691 -0.70495,2.43984 -0.95534,3.9354 -0.62335,4.91121 0.17528,0.51518 1.02636,1.45024 2.02153,2.36208 0.1896,0.17374 0.37719,0.34982 0.56268,0.52823 0.1719,-0.41742 0.33696,-0.83977 0.49515,-1.26682 0.3949,-1.06603 1.63489,-3.80137 1.84586,-3.99725 0.34504,-0.32037 3.16148,-1.104 4.4432,-1.19583 0.41455,-0.0297 0.83131,-0.0535 1.25019,-0.0712 -0.18581,-0.28169 -0.37496,-0.56135 -0.56738,-0.83893 z m 3.56657,4.86164 c -0.0672,-0.1349 -0.1587,-0.30257 -0.26761,-0.48932 0,0 0,0 0,0 -0.31119,-0.52736 -0.71811,-1.13271 -1.10105,-1.62928 -0.84966,-1.10199 -1.01282,-1.20939 -1.77799,-1.4713 -0.97957,-0.33533 -2.30148,-0.28174 -4.30224,0.30688 -0.45936,0.13514 -0.91545,0.27639 -1.36818,0.42362 -0.15466,0.377 -0.31339,0.7512 -0.47618,1.12249 -1.01824,2.32243 -1.47239,3.7608 -1.2845,4.76552 0.0887,0.47445 0.655,1.34086 1.36663,2.25389 0.0896,0.11337 0.18202,0.2281 0.27649,0.34308 0.16189,0.19709 0.32156,0.39673 0.47898,0.59885 0.23093,-0.38735 0.45581,-0.78052 0.6744,-1.17945 0.16257,-0.29666 0.40651,-0.69934 0.66211,-1.11257 0.67046,-1.08195 1.51905,-2.4275 1.73756,-2.57955 0.22652,-0.15762 1.72136,-0.42983 3.07384,-0.52555 0.59503,-0.0418 1.13532,-0.05 1.50145,-0.0223 0.41537,0.0313 0.83199,0.069 1.24971,0.11296 -0.14381,-0.30716 -0.29161,-0.61316 -0.44342,-0.91792 z m 2.8224,5.32298 c -0.18954,-0.56983 -0.61739,-1.52299 -1.04179,-2.28096 -0.67902,-1.21299 -0.82506,-1.34377 -1.54545,-1.71595 -0.64144,-0.33144 -1.46024,-0.49714 -2.58048,-0.47451 -0.50835,0.0106 -1.08329,0.0603 -1.73006,0.1541 -0.47445,0.0688 -0.94613,0.14451 -1.41497,0.22706 -0.20576,0.3517 -0.41554,0.69989 -0.6293,1.04445 -0.37482,0.60417 -0.69675,1.14375 -0.96709,1.63433 -0.68993,1.25484 -1.02238,2.16231 -0.99357,2.89128 0.0211,0.53508 0.56703,1.66273 1.26181,2.81866 0.13251,0.22049 0.26266,0.44305 0.39041,0.66761 0.28291,-0.35298 0.56084,-0.7122 0.83358,-1.07759 0.67884,-0.90946 2.64717,-3.18807 2.90106,-3.31482 0.4229,-0.21113 3.34411,-0.1671 4.60347,0.10693 0.40651,0.0884 0.81344,0.18301 1.22062,0.28365 -0.0988,-0.32211 -0.20156,-0.64355 -0.30824,-0.96424 z m 2.05161,5.62943 c -0.10966,-0.58693 -0.4029,-1.5866 -0.71747,-2.39032 -0.50413,-1.28853 -0.62828,-1.43536 -1.28976,-1.90159 -0.8449,-0.59556 -2.13151,-0.91946 -4.21791,-0.91937 -0.47912,1e-5 -0.95671,0.007 -1.4326,0.0209 -0.25447,0.31831 -0.51225,0.63263 -0.77324,0.94295 -1.63333,1.94201 -2.47817,3.19022 -2.5795,4.21542 -0.0532,0.53816 0.33325,1.74018 0.86926,2.98984 0.10213,0.23815 0.20177,0.47788 0.29887,0.71913 0.32745,-0.3132 0.65102,-0.63307 0.97047,-0.95954 0.79973,-0.81729 3.05138,-2.80256 3.32651,-2.89539 0.4445,-0.14998 3.34142,0.2908 4.54827,0.72838 0.3908,0.1417 0.78119,0.28928 1.17098,0.44274 -0.0541,-0.33126 -0.11207,-0.66234 -0.17388,-0.99316 z m 1.27378,5.82988 c -0.01,-0.19453 -0.0356,-0.45575 -0.0744,-0.75013 -0.0737,-0.55629 -0.1875,-1.17489 -0.31637,-1.70357 -0.32654,-1.34019 -0.42859,-1.50042 -1.02133,-2.0493 -0.75696,-0.70103 -1.98658,-1.19152 -4.05516,-1.47545 -0.47491,-0.0652 -0.94926,-0.1236 -1.4229,-0.1752 -0.296,0.28052 -0.59463,0.55686 -0.89578,0.82899 -1.88424,1.70267 -2.88894,2.83373 -3.12398,3.84053 -0.10615,0.45472 0.0441,1.41949 0.31734,2.50267 0,0 0,0 0,0 0.0489,0.19313 0.10194,0.39131 0.1585,0.59131 0.0711,0.25152 0.13958,0.50436 0.20536,0.75843 0.36423,-0.27031 0.72564,-0.54714 1.08405,-0.83055 0.33406,-0.26418 0.86094,-0.63713 1.37753,-0.9943 0.97579,-0.67342 2.05098,-1.39494 2.29709,-1.44304 0.23521,-0.046 1.4618,0.23115 2.63234,0.61414 0.71488,0.23338 1.37515,0.49222 1.77746,0.69955 0.3683,0.18981 0.73547,0.38495 1.10143,0.58533 -0.0103,-0.33265 -0.024,-0.6658 -0.0412,-0.99941 z m 0.52991,5.88436 c 0.0392,-0.58135 0.007,-1.61553 -0.0906,-2.45568 -0.15711,-1.35876 -0.23285,-1.52284 -0.75079,-2.1406 -0.50813,-0.6061 -1.29634,-1.11599 -2.53544,-1.57199 -0.38265,-0.14113 -0.81074,-0.27761 -1.287,-0.40851 -0.46203,-0.127 -0.92449,-0.24738 -1.38721,-0.36111 -0.33051,0.23898 -0.66296,0.47357 -0.99725,0.70375 -0.46169,0.31791 -0.87678,0.61344 -1.24905,0.89327 -1.30951,0.98621 -2.06296,1.76485 -2.34117,2.5211 -0.18908,0.51397 -0.12151,1.79639 0.0875,3.16707 0.0398,0.26104 0.0771,0.52302 0.1118,0.78589 0.39423,-0.2277 0.78651,-0.46167 1.17666,-0.70198 0.99115,-0.6105 3.63747,-1.95824 3.94331,-1.9794 0.45699,-0.0316 3.16664,1.12401 4.21753,1.83042 0.34337,0.23081 0.68518,0.46642 1.02536,0.70675 0.0286,-0.3289 0.0541,-0.65857 0.0764,-0.98898 z m -0.14653,5.86316 c 0.10323,-0.56808 0.18694,-1.59536 0.18586,-2.43348 -0.002,-1.35941 -0.0563,-1.52656 -0.49977,-2.19756 -0.56352,-0.8526 -1.62995,-1.61853 -3.55927,-2.4112 -0.44273,-0.18191 -0.88649,-0.35795 -1.33117,-0.52803 -0.3573,0.19597 -0.7159,0.38779 -1.07571,0.57548 -2.24978,1.17356 -3.50391,2.04045 -3.97656,2.97797 -0.24941,0.49473 -0.33237,1.78902 -0.27683,3.18998 0.0106,0.26652 0.0187,0.53362 0.0245,0.80123 0.41707,-0.18522 0.83306,-0.37647 1.24779,-0.57381 1.06125,-0.50496 3.82989,-1.54558 4.14462,-1.53142 0.4524,0.0204 3.02689,1.4768 3.9894,2.28763 0.31599,0.26619 0.63,0.53665 0.94195,0.8113 0.0646,-0.32167 0.12638,-0.64438 0.1852,-0.96809 z m -0.77506,5.77189 c 0.0683,-0.23423 0.14749,-0.5759 0.22136,-0.95862 0.0924,-0.47286 0.17085,-0.97953 0.2184,-1.42214 0.14456,-1.34403 0.10953,-1.5123 -0.25864,-2.22493 -0.46748,-0.90493 -1.44238,-1.77794 -3.27215,-2.78298 -0.41975,-0.23056 -0.84105,-0.45582 -1.26381,-0.67568 -0.37765,0.15408 -0.75607,0.30419 -1.13518,0.45037 -2.36989,0.91381 -3.71469,1.64747 -4.28555,2.53598 -0.24397,0.37974 -0.42992,1.27581 -0.54072,2.338 0,0 0,0 0,0 -0.0288,0.26812 -0.053,0.54845 -0.0717,0.83398 -0.0176,0.26905 -0.0374,0.53826 -0.0595,0.80761 0.43414,-0.1442 0.8678,-0.29406 1.30084,-0.4496 0.50578,-0.18165 1.36536,-0.42891 2.12835,-0.63446 0,0 0,0 0,0 0.98921,-0.26596 1.93328,-0.49573 2.15307,-0.46228 0.19719,0.03 1.01214,0.53002 1.8543,1.13972 0,0 0,0 0,0 0.75134,0.54296 1.48301,1.14067 1.87449,1.54312 0.2873,0.29535 0.57246,0.59444 0.85541,0.89722 0.0961,-0.31072 0.1898,-0.6225 0.28096,-0.93531 z m -1.3288,5.63319 c 0.21084,-0.52756 0.49721,-1.51254 0.66358,-2.31924 0.27175,-1.31686 0.25477,-1.4816 -0.0418,-2.22478 -0.3235,-0.81084 -1.01413,-1.62511 -2.27992,-2.59015 -0.21266,-0.16244 -0.44223,-0.32945 -0.68933,-0.50112 -0.39296,-0.27303 -0.78802,-0.54131 -1.18506,-0.80476 -0.39186,0.11313 -0.78397,0.2225 -1.17624,0.32813 -0.36231,0.0976 -0.70188,0.19366 -1.02024,0.28958 -1.83404,0.55358 -2.94632,1.10077 -3.50548,1.80888 -0.34951,0.44263 -0.69954,1.71316 -0.92779,3.11628 -0.0434,0.26662 -0.089,0.53317 -0.13681,0.7996 0.44619,-0.10221 0.89246,-0.21005 1.33869,-0.32355 1.15367,-0.29343 4.05297,-0.76081 4.37,-0.68038 0.43066,0.10926 2.67564,2.05766 3.455,3.02995 0.25774,0.32154 0.513,0.64656 0.76573,0.97502 0.12556,-0.2999 0.24878,-0.60106 0.36964,-0.90346 z m -1.86325,5.47796 c 0.26042,-0.50486 0.63993,-1.45787 0.88286,-2.2446 0.39679,-1.28444 0.39572,-1.4497 0.1717,-2.21777 -0.28399,-0.97381 -1.06798,-2.01187 -2.66012,-3.3622 -0.36505,-0.30962 -0.73239,-0.61493 -1.10194,-0.91589 -0.4011,0.0744 -0.80215,0.14527 -1.2031,0.21263 -2.50489,0.42083 -3.97407,0.88909 -4.70938,1.65716 -0.39058,0.40797 -0.86025,1.64075 -1.22084,3.01657 -0.0685,0.26141 -0.13923,0.5225 -0.21212,0.78323 0.45382,-0.0592 0.9083,-0.12408 1.3633,-0.19456 1.17665,-0.18225 4.10722,-0.37104 4.41568,-0.26048 0.41826,0.1499 2.46766,2.3044 3.15038,3.34626 0.22584,0.34465 0.44888,0.69251 0.66903,1.04355 0.15374,-0.2865 0.30527,-0.57448 0.45455,-0.8639 z m -2.38044,5.27494 c 0.30789,-0.47786 0.77716,-1.39012 1.09454,-2.1502 0.5182,-1.2406 0.53297,-1.40535 0.3835,-2.19114 -0.1895,-0.99643 -0.87072,-2.10429 -2.32695,-3.60075 -0.33389,-0.34312 -0.67048,-0.68219 -1.00968,-1.01719 -0.40651,0.0357 -0.8126,0.068 -1.21825,0.0968 -2.53414,0.17987 -4.04125,0.50648 -4.84587,1.20089 -0.42752,0.36895 -1.01163,1.55113 -1.50096,2.88482 -0.093,0.25341 -0.18812,0.50625 -0.28541,0.75849 0.45704,-0.0153 0.9153,-0.0361 1.37468,-0.0626 1.18728,-0.0684 4.12264,0.0239 4.41869,0.16318 0.40246,0.18936 2.23528,2.52884 2.81469,3.63155 0.19162,0.36467 0.38008,0.73229 0.56534,1.10282 0.18065,-0.27054 0.35921,-0.54276 0.53568,-0.81664 z m -2.88042,5.02413 c 0.35334,-0.44653 0.90887,-1.30935 1.29863,-2.03605 0.63595,-1.18535 0.66658,-1.34854 0.59365,-2.14486 -0.0925,-1.01008 -0.6639,-2.17809 -1.97001,-3.8065 -0.29947,-0.37339 -0.60205,-0.743 -0.90767,-1.10879 -0.40798,-0.003 -0.81522,-0.01 -1.22165,-0.02 -2.53902,-0.0631 -4.06922,0.11719 -4.93557,0.72997 -0.46029,0.32558 -1.15372,1.44429 -1.76816,2.72103 -0.11678,0.24261 -0.23567,0.48442 -0.35668,0.72539 0.45585,0.0297 0.91349,0.0538 1.37282,0.0723 1.18563,0.0478 4.0992,0.4242 4.37907,0.59061 0.38308,0.22776 1.97867,2.73086 2.44793,3.88581 0.15505,0.3816 0.30661,0.76589 0.45462,1.15282 0.2063,-0.25201 0.41065,-0.50591 0.61302,-0.76167 z m -3.36313,4.72553 c 0.39675,-0.41082 1.035,-1.2156 1.49512,-1.90214 0.74997,-1.11873 0.79659,-1.27924 0.80214,-2.07897 0.007,-1.01475 -0.44749,-2.23324 -1.58928,-3.97943 -0.26181,-0.40042 -0.52714,-0.79733 -0.79591,-1.19068 -0.40556,-0.0426 -0.81002,-0.0885 -1.21332,-0.13782 -2.51955,-0.30815 -4.05799,-0.27875 -4.97848,0.24443 -0.48886,0.27785 -1.28657,1.32019 -2.02246,2.52518 -0.13988,0.22904 -0.28185,0.45702 -0.42591,0.68392 0.45024,0.0756 0.90286,0.14563 1.35772,0.21011 1.17187,0.16612 4.03672,0.83018 4.29679,1.02179 0.35989,0.26516 1.69807,2.91042 2.05011,4.10906 0.11614,0.39543 0.22845,0.7933 0.33688,1.19355 0.2307,-0.23092 0.45957,-0.46393 0.6866,-0.699 z m -3.83389,4.38552 c 0.27328,-0.23081 0.67693,-0.62506 1.07624,-1.05743 0.21984,-0.23704 0.43056,-0.47658 0.61306,-0.69743 0.86022,-1.04078 0.92305,-1.1974 1.00896,-1.99343 0.1091,-1.01047 -0.22146,-2.26974 -1.18476,-4.11957 -0.2209,-0.42421 -0.44572,-0.84518 -0.6744,-1.26287 -0.39923,-0.0822 -0.797,-0.1677 -1.19327,-0.25658 -2.47572,-0.55525 -4.00751,-0.68134 -4.97458,-0.25576 -0.36059,0.15869 -0.89778,0.66499 -1.47822,1.33124 0,0 0,0 0,0 -0.25517,0.29146 -0.52099,0.61711 -0.78204,0.95861 -0.1613,0.21099 -0.3245,0.42061 -0.48961,0.62877 0.43832,0.12501 0.88011,0.2441 1.3251,0.35729 0.70342,0.17893 2.30218,0.70659 3.17377,1.02513 0.50822,0.18552 0.89204,0.3444 0.99529,0.43798 0.0892,0.0809 0.27804,0.44154 0.49393,0.93245 0.46775,1.06443 0.97118,2.53783 1.12169,3.37445 0.0733,0.40733 0.14198,0.81694 0.20593,1.22879 0.25639,-0.20806 0.51071,-0.41863 0.76291,-0.63164 z m -4.35442,3.98184 c 0.49314,-0.32454 1.29761,-0.97759 1.90832,-1.56595 0.9838,-0.94759 1.06725,-1.10772 1.24099,-1.89152 0.22175,-1.00023 0.0267,-2.29514 -0.74351,-4.2359 -0.0271,-0.0683 -0.0543,-0.13644 -0.0816,-0.20455 -0.15076,-0.37579 -0.30461,-0.74943 -0.46153,-1.12092 -0.38898,-0.12213 -0.77615,-0.24758 -1.16147,-0.37633 1e-5,0 -0.006,-0.002 -0.006,-0.002 0,0 0,0 0,0 -2.40441,-0.80424 -3.90842,-1.09715 -4.90642,-0.78684 -0.53062,0.16499 -1.5089,1.00234 -2.46136,1.99551 -0.18116,0.18888 -0.36424,0.37584 -0.54925,0.56077 0.41682,0.17788 0.83838,0.34967 1.26441,0.51539 1.07802,0.41933 3.76425,1.7098 3.96479,1.93774 0.30523,0.34693 1.02926,3.1998 1.09873,4.46943 0.0226,0.41393 0.0399,0.8297 0.0515,1.24724 0.28278,-0.17766 0.5637,-0.35834 0.84272,-0.54196 z m -4.87397,3.44641 c 0.53973,-0.26285 1.42758,-0.8116 2.11773,-1.32575 1.10623,-0.82394 1.2129,-0.97894 1.48516,-1.73665 0.34815,-0.96878 0.31525,-2.28348 -0.22579,-4.30041 -0.12414,-0.46283 -0.25382,-0.92288 -0.38886,-1.3801 -0.37317,-0.16514 -0.74377,-0.33382 -1.11167,-0.50603 -2.30003,-1.0766 -3.74498,-1.55103 -4.7611,-1.37135 -0.53766,0.0951 -1.5936,0.79472 -2.64625,1.63616 -0.20057,0.16031 -0.40308,0.31814 -0.60754,0.4734 0.38586,0.23461 0.77774,0.46296 1.17539,0.68508 0.99249,0.55438 3.50604,2.1988 3.66708,2.43696 0.26369,0.38995 0.60713,3.29277 0.50089,4.57467 -0.0344,0.41454 -0.075,0.83047 -0.12207,1.24772 0.30734,-0.14107 0.61303,-0.28566 0.91703,-0.4337 z m -5.38949,2.78928 c 0.58999,-0.1855 1.55497,-0.6029 2.33164,-1.0291 0.1302,-0.0714 0.24848,-0.13759 0.35462,-0.19837 0.89991,-0.51579 1.03749,-0.68704 1.38078,-1.33988 0.4831,-0.91861 0.63268,-2.23369 0.3573,-4.30095 -0.0632,-0.47462 -0.13299,-0.9469 -0.20913,-1.41679 -0.34883,-0.21056 -0.69428,-0.42469 -1.03625,-0.6424 -2.1387,-1.36155 -3.49119,-2.03182 -4.51088,-2.00406 -0.21186,0.006 -0.5074,0.0889 -0.8565,0.2258 -0.54237,0.21223 -1.24143,0.56889 -1.94146,0.97582 -0.21747,0.1264 -0.43675,0.25009 -0.65779,0.37093 0.34161,0.2927 0.69108,0.57982 1.04809,0.86113 0.87369,0.68844 3.14681,2.72161 3.26234,2.96024 0.21072,0.43522 0.12033,3.34202 -0.19136,4.61321 -0.0997,0.40665 -0.2067,0.8136 -0.32112,1.2206 0.3311,-0.0941 0.66104,-0.19284 0.98972,-0.29618 z m -5.84477,1.91217 c 0.62046,-0.0862 1.6479,-0.33979 2.49339,-0.6358 1.33416,-0.46692 1.49953,-0.60189 1.98919,-1.25107 0.6311,-0.83662 0.99134,-2.12644 1.02262,-4.21668 0.007,-0.48009 0.007,-0.95851 -0.002,-1.43503 -0.31565,-0.25841 -0.62691,-0.52051 -0.93364,-0.78618 -1.92109,-1.6639 -3.13451,-2.54005 -4.13263,-2.67515 -0.52386,-0.0709 -1.69451,0.27297 -2.9051,0.73719 -0.23105,0.0886 -0.46342,0.17378 -0.69703,0.25547 0.28399,0.34537 0.57749,0.68617 0.88019,1.02216 0.731,0.81141 2.65317,3.2064 2.7253,3.44861 0.14027,0.471 -0.42276,3.30892 -0.94947,4.51607 -0.16762,0.38415 -0.34308,0.76725 -0.52652,1.14909 0.34564,-0.0379 0.69086,-0.0808 1.03554,-0.12868 z m -6.15752,0.89461 c 0.63749,0.0236 1.70328,-0.0484 2.60016,-0.19666 1.40869,-0.2327 1.60122,-0.34151 2.19753,-0.8977 0.77017,-0.71829 1.34724,-1.9312 1.71842,-3.98651 0.0853,-0.47229 0.16197,-0.94437 0.23017,-1.41602 -0.2701,-0.30568 -0.53483,-0.61433 -0.79408,-0.92586 -1.62398,-1.95144 -2.65934,-3.01366 -3.60406,-3.31762 -0.49352,-0.15877 -1.68368,-0.0245 -2.92797,0.20375 -0.23803,0.0436 -0.47688,0.0832 -0.71649,0.11865 0.21171,0.39367 0.4346,0.78377 0.66833,1.17009 0.55409,0.9158 2.02981,3.64847 2.05607,3.8778 0.0568,0.49604 -0.99624,3.17137 -1.74822,4.27609 -0.23733,0.34865 -0.48307,0.69495 -0.73735,1.03865 0.35223,0.0239 0.70477,0.0423 1.05749,0.0553 z"
       style="fill:#6b6e76;fill-opacity:1;fill-rule:evenodd;stroke:#181b21;stroke-width:0.716934;stroke-linecap:butt;stroke-linejoin:miter;stroke-miterlimit:4;stroke-dasharray:none;stroke-opacity:1" />
    <g
       id="g5020"
       transform="matrix(1.2378904,0,0,1.2548769,17.861139,-36.938576)">
      <path
         style="opacity:0.99;fill:#f9fbfb;fill-opacity:1;stroke:#111c14;stroke-width:1.3;stroke-linecap:round;stroke-miterlimit:4;stroke-dasharray:none;stroke-opacity:1"
         id="path1259-4-2"
         sodipodi:type="arc"
         sodipodi:cx="72.575562"
         sodipodi:cy="129.45613"
         sodipodi:rx="6.4622993"
         sodipodi:ry="6.149713"
         sodipodi:start="4.9528081"
         sodipodi:end="4.9234516"
         sodipodi:open="true"
         sodipodi:arc-type="arc"
         d="m 74.114298,123.48329 a 6.4622993,6.149713 0 0 1 4.74882,7.39327 6.4622993,6.149713 0 0 1 -7.734003,4.57326 6.4622993,6.149713 0 0 1 -4.862341,-7.32614 6.4622993,6.149713 0 0 1 7.662633,-4.68079" />
      <rect
         transform="matrix(0.9999619,-0.00872936,0.01074287,0.99994229,0,0)"
         ry="0.99626803"
         y="125.88853"
         x="67.56282"
         height="3.3984034"
         width="3.3344154"
         id="rect1495-1-1-5-9-0-4-4-7-6-3-1-5-7-4-9-8-89"
         style="opacity:0.99;fill:#0b1f13;fill-opacity:1;stroke:none;stroke-width:0.975205;stroke-linecap:round;stroke-miterlimit:4;stroke-dasharray:none;stroke-opacity:1" />
      <rect
         style="opacity:0.99;fill:#0b1f13;fill-opacity:1;stroke:none;stroke-width:0.975205;stroke-linecap:round;stroke-miterlimit:4;stroke-dasharray:none;stroke-opacity:1"
         id="rect1495-1-1-5-9-0-4-4-7-6-3-1-5-7-4-9-8-8-6"
         width="3.3344154"
         height="3.3984034"
         x="71.680664"
         y="125.92448"
         ry="0.99626803"
         transform="matrix(0.9999619,-0.00872936,0.01074287,0.99994229,0,0)" />
      <rect
         transform="matrix(0.9999619,-0.00872936,0.01074287,0.99994229,0,0)"
         ry="0.99626803"
         y="130.35466"
         x="67.514839"
         height="3.3984034"
         width="3.3344154"
         id="rect1495-1-1-5-9-0-4-4-7-6-3-1-5-7-4-9-8-8-3-4"
         style="opacity:0.99;fill:#0b1f13;fill-opacity:1;stroke:none;stroke-width:0.975205;stroke-linecap:round;stroke-miterlimit:4;stroke-dasharray:none;stroke-opacity:1" />
      <rect
         style="opacity:0.99;fill:#0b1f13;fill-opacity:1;stroke:none;stroke-width:0.975205;stroke-linecap:round;stroke-miterlimit:4;stroke-dasharray:none;stroke-opacity:1"
         id="rect1495-1-1-5-9-0-4-4-7-6-3-1-5-7-4-9-8-8-3-1-3"
         width="3.3344154"
         height="3.3984034"
         x="71.630997"
         y="130.54648"
         ry="0.99626803"
         transform="matrix(0.9999619,-0.00872936,0.01074287,0.99994229,0,0)" />
    </g>
    <g
       transform="translate(-37.774006,4.7179336)"
       id="g5252">
      <path
         style="opacity:0.99;fill:#edf2eb;fill-opacity:1;stroke:#111c14;stroke-width:1.18868;stroke-linecap:round;stroke-miterlimit:4;stroke-dasharray:none;stroke-opacity:1"
         id="path1259-4-9"
         sodipodi:type="arc"
         sodipodi:cx="145.47569"
         sodipodi:cy="212.6256"
         sodipodi:rx="7.6091037"
         sodipodi:ry="7.3796549"
         sodipodi:start="4.9528081"
         sodipodi:end="4.9234516"
         sodipodi:open="true"
         sodipodi:arc-type="arc"
         d="m 147.28749,205.45819 a 7.6091037,7.3796549 0 0 1 5.59155,8.87192 7.6091037,7.3796549 0 0 1 -9.10648,5.48791 7.6091037,7.3796549 0 0 1 -5.72522,-8.79137 7.6091037,7.3796549 0 0 1 9.02245,-5.61695" />
      <rect
         style="opacity:0.99;fill:#0b1f13;fill-opacity:1;stroke:none;stroke-width:1.14361;stroke-linecap:round;stroke-miterlimit:4;stroke-dasharray:none;stroke-opacity:1"
         id="rect1495-1-1-5-9-0-4-4-7-6-3-1-1"
         width="3.1761312"
         height="3.2760925"
         x="232.29677"
         y="93.449081"
         ry="0.96041167"
         transform="matrix(0.83102369,0.55623702,-0.5400849,0.84161054,0,0)" />
      <rect
         transform="matrix(0.99984416,-0.01765352,0.01462399,0.99989306,0,0)"
         ry="1.1954912"
         y="215.50627"
         x="138.45387"
         height="4.077981"
         width="3.1247237"
         id="rect1495-1-1-5-9-0-4-4-7-6-3-1-5-8"
         style="opacity:0.99;fill:#0b1f13;fill-opacity:1;stroke:none;stroke-width:1.14351;stroke-linecap:round;stroke-miterlimit:4;stroke-dasharray:none;stroke-opacity:1"
         inkscape:transform-center-x="2.1189916"
         inkscape:transform-center-y="0.37520574" />
      <rect
         style="opacity:0.99;fill:#0b1f13;fill-opacity:1;stroke:none;stroke-width:1.14359;stroke-linecap:round;stroke-miterlimit:4;stroke-dasharray:none;stroke-opacity:1"
         id="rect1495-1-1-5-9-0-4-4-7-6-3-1-5-7-5"
         width="3.1492496"
         height="4.0467362"
         x="245.61099"
         y="63.037285"
         ry="1.1863316"
         transform="matrix(0.76338707,0.64594132,-0.63346925,0.77376786,0,0)" />
      <rect
         transform="matrix(0.99996043,-0.00889645,0.01054112,0.99994444,0,0)"
         ry="1.195519"
         y="214.53001"
         x="143.29068"
         height="4.0780749"
         width="3.9261489"
         id="rect1495-1-1-5-9-0-4-4-7-6-3-1-5-7-4-9"
         style="opacity:0.99;fill:#0b1f13;fill-opacity:1;stroke:none;stroke-width:1.14351;stroke-linecap:round;stroke-miterlimit:4;stroke-dasharray:none;stroke-opacity:1" />
    </g>
    <g
       transform="translate(7.0283534,44.743338)"
       id="g5117">
      <path
         sodipodi:arc-type="arc"
         sodipodi:open="true"
         sodipodi:end="4.9234516"
         sodipodi:start="4.9528081"
         sodipodi:ry="7.31319"
         sodipodi:rx="8.0721684"
         sodipodi:cy="127.43436"
         sodipodi:cx="146.12531"
         sodipodi:type="arc"
         id="path1259-4-2-3"
         style="opacity:0.99;fill:#fdfdfd;fill-opacity:1;stroke:#111c14;stroke-width:1.21878;stroke-linecap:round;stroke-miterlimit:4;stroke-dasharray:none;stroke-opacity:1"
         d="m 148.04737,120.33151 a 8.0721684,7.31319 0 0 1 5.93183,8.79201 8.0721684,7.31319 0 0 1 -9.66068,5.43848 8.0721684,7.31319 0 0 1 -6.07363,-8.71219 8.0721684,7.31319 0 0 1 9.57153,-5.56636" />
      <rect
         transform="matrix(0.99995457,-0.0095323,0.009838,0.99995161,0,0)"
         ry="1.1847429"
         y="124.65232"
         x="141.07646"
         height="4.0413165"
         width="3.631258"
         id="rect1495-1-1-5-9-0-4-4-7-6-3-1"
         style="opacity:0.99;fill:#0b1f13;fill-opacity:1;stroke:none;stroke-width:1.21879;stroke-linecap:round;stroke-miterlimit:4;stroke-dasharray:none;stroke-opacity:1" />
      <rect
         style="opacity:0.99;fill:#0b1f13;fill-opacity:1;stroke:none;stroke-width:1.21891;stroke-linecap:round;stroke-miterlimit:4;stroke-dasharray:none;stroke-opacity:1"
         id="rect1495-1-1-5-9-0-4-4-7-6-3-1-5"
         width="3.3062496"
         height="4.0525966"
         x="105.69318"
         y="157.80914"
         ry="1.1880496"
         transform="matrix(0.97442067,-0.22473175,0.24415308,0.9697367,0,0)" />
      <rect
         transform="matrix(0.95471864,0.2975102,-0.32751471,0.94484608,0,0)"
         ry="1.1907244"
         y="73.686592"
         x="180.7923"
         height="4.0617208"
         width="3.2998097"
         id="rect1495-1-1-5-9-0-4-4-7-6-3-1-5-7"
         style="opacity:0.99;fill:#0b1f13;fill-opacity:1;stroke:none;stroke-width:1.21909;stroke-linecap:round;stroke-miterlimit:4;stroke-dasharray:none;stroke-opacity:1" />
      <rect
         style="opacity:0.99;fill:#0b1f13;fill-opacity:1;stroke:none;stroke-width:1.21973;stroke-linecap:round;stroke-miterlimit:4;stroke-dasharray:none;stroke-opacity:1"
         id="rect1495-1-1-5-9-0-4-4-7-6-3-1-5-7-4"
         width="2.6523218"
         height="4.1435986"
         x="195.85136"
         y="-7.512382"
         ry="1.2147275"
         transform="matrix(0.73097629,0.68240286,-0.72191204,0.69198483,0,0)" />
    </g>
    <g
       id="g5032"
       transform="matrix(1.1732986,0,0,1.1975907,-23.034511,-81.656918)">
      <path
         sodipodi:arc-type="arc"
         sodipodi:open="true"
         sodipodi:end="4.9234516"
         sodipodi:start="4.9528081"
         sodipodi:ry="6.149713"
         sodipodi:rx="6.4622993"
         sodipodi:cy="211.87685"
         sodipodi:cx="72.575562"
         sodipodi:type="arc"
         id="path1259-4"
         style="opacity:0.99;fill:#f6f6f6;fill-opacity:1;stroke:#111c14;stroke-width:1.3;stroke-linecap:round;stroke-miterlimit:4;stroke-dasharray:none;stroke-opacity:1"
         d="m 74.114298,205.90401 a 6.4622993,6.149713 0 0 1 4.74882,7.39327 6.4622993,6.149713 0 0 1 -7.734003,4.57325 6.4622993,6.149713 0 0 1 -4.862341,-7.32614 6.4622993,6.149713 0 0 1 7.662633,-4.68079" />
      <rect
         transform="matrix(0.9997478,-0.0224575,0.02438464,0.99970265,0,0)"
         ry="0.804842"
         y="210.39093"
         x="64.103104"
         height="2.7454236"
         width="2.6818678"
         id="rect1495-1-1-5-9-0-4-4-7-6-3-1-1-3"
         style="opacity:0.99;fill:#0b1f13;fill-opacity:1;stroke:none;stroke-width:0.786088;stroke-linecap:round;stroke-miterlimit:4;stroke-dasharray:none;stroke-opacity:1" />
      <rect
         inkscape:transform-center-y="0.37520574"
         inkscape:transform-center-x="2.1189916"
         style="opacity:0.99;fill:#0b1f13;fill-opacity:1;stroke:none;stroke-width:0.869984;stroke-linecap:round;stroke-miterlimit:4;stroke-dasharray:none;stroke-opacity:1"
         id="rect1495-1-1-5-9-0-4-4-7-6-3-1-5-8-3"
         width="2.6537664"
         height="3.3983316"
         x="66.204201"
         y="213.83258"
         ry="0.99624687"
         transform="matrix(0.99984996,-0.01732204,0.01490386,0.99988893,0,0)" />
      <rect
         transform="matrix(0.99995492,0.0094955,-0.01191384,0.99992903,0,0)"
         ry="0.99624687"
         y="207.95576"
         x="75.342941"
         height="3.3983316"
         width="2.6537662"
         id="rect1495-1-1-5-9-0-4-4-7-6-3-1-5-7-5-8"
         style="opacity:0.99;fill:#0b1f13;fill-opacity:1;stroke:none;stroke-width:0.869984;stroke-linecap:round;stroke-miterlimit:4;stroke-dasharray:none;stroke-opacity:1" />
      <rect
         style="opacity:0.99;fill:#0b1f13;fill-opacity:1;stroke:none;stroke-width:0.975205;stroke-linecap:round;stroke-miterlimit:4;stroke-dasharray:none;stroke-opacity:1"
         id="rect1495-1-1-5-9-0-4-4-7-6-3-1-5-7-4-9-6"
         width="3.3344154"
         height="3.3984034"
         x="70.456024"
         y="213.45964"
         ry="0.99626803"
         transform="matrix(0.9999619,-0.00872936,0.01074287,0.99994229,0,0)" />
    </g>
  </g>
</svg>
